<?xml version="1.0" encoding="UTF-8" standalone="no"?>
<!-- Created with Inkscape (http://www.inkscape.org/) -->
<svg
   xmlns:dc="http://purl.org/dc/elements/1.1/"
   xmlns:cc="http://creativecommons.org/ns#"
   xmlns:rdf="http://www.w3.org/1999/02/22-rdf-syntax-ns#"
   xmlns:svg="http://www.w3.org/2000/svg"
   xmlns="http://www.w3.org/2000/svg"
   xmlns:sodipodi="http://sodipodi.sourceforge.net/DTD/sodipodi-0.dtd"
   xmlns:inkscape="http://www.inkscape.org/namespaces/inkscape"
   width="734.49615"
   height="292.20999"
   id="svg2"
   sodipodi:version="0.32"
   inkscape:version="0.46"
   sodipodi:docbase="/home/thomas/Media/Grafik/AkaModell/logo"
   sodipodi:docname="logo.svg"
   inkscape:output_extension="org.inkscape.output.svg.inkscape"
   version="1.0"
   inkscape:export-filename="/home/thomas/Media/Grafik/AkaModell/logo/logo_heller_hg_klein.png"
   inkscape:export-xdpi="199.97382"
   inkscape:export-ydpi="199.97382">
  <defs
     id="defs4">
    <inkscape:perspective
       sodipodi:type="inkscape:persp3d"
       inkscape:vp_x="0 : 526.18109 : 1"
       inkscape:vp_y="0 : 1000 : 0"
       inkscape:vp_z="744.09448 : 526.18109 : 1"
       inkscape:persp3d-origin="372.04724 : 350.78739 : 1"
       id="perspective131" />
    <inkscape:perspective
       id="perspective2451"
       inkscape:persp3d-origin="183.29527 : 46.606298 : 1"
       inkscape:vp_z="366.59055 : 69.909447 : 1"
       inkscape:vp_y="0 : 1000 : 0"
       inkscape:vp_x="0 : 69.909447 : 1"
       sodipodi:type="inkscape:persp3d" />
    <inkscape:perspective
       id="perspective2704"
       inkscape:persp3d-origin="183.29527 : 46.606298 : 1"
       inkscape:vp_z="366.59055 : 69.909447 : 1"
       inkscape:vp_y="0 : 1000 : 0"
       inkscape:vp_x="0 : 69.909447 : 1"
       sodipodi:type="inkscape:persp3d" />
    <inkscape:perspective
       id="perspective2599"
       inkscape:persp3d-origin="183.29527 : 46.606298 : 1"
       inkscape:vp_z="366.59055 : 69.909447 : 1"
       inkscape:vp_y="0 : 1000 : 0"
       inkscape:vp_x="0 : 69.909447 : 1"
       sodipodi:type="inkscape:persp3d" />
    <inkscape:perspective
       id="perspective2680"
       inkscape:persp3d-origin="183.29527 : 46.606298 : 1"
       inkscape:vp_z="366.59055 : 69.909447 : 1"
       inkscape:vp_y="0 : 1000 : 0"
       inkscape:vp_x="0 : 69.909447 : 1"
       sodipodi:type="inkscape:persp3d" />
    <inkscape:perspective
       id="perspective2498"
       inkscape:persp3d-origin="372.04724 : 350.78739 : 1"
       inkscape:vp_z="744.09448 : 526.18109 : 1"
       inkscape:vp_y="0 : 1000 : 0"
       inkscape:vp_x="0 : 526.18109 : 1"
       sodipodi:type="inkscape:persp3d" />
  </defs>
  <sodipodi:namedview
     id="base"
     pagecolor="#0000be"
     bordercolor="#666666"
     borderopacity="1.0"
     inkscape:pageopacity="1"
     inkscape:pageshadow="2"
     inkscape:zoom="0.85970002"
     inkscape:cx="603.37696"
     inkscape:cy="209.60231"
     inkscape:document-units="px"
     inkscape:current-layer="layer1"
     inkscape:window-width="1400"
     inkscape:window-height="973"
     inkscape:window-x="0"
     inkscape:window-y="27"
     showgrid="false"
     showguides="true"
     inkscape:guide-bbox="true" />
  <metadata
     id="metadata7">
    <rdf:RDF>
      <cc:Work
         rdf:about="">
        <dc:format>image/svg+xml</dc:format>
        <dc:type
           rdf:resource="http://purl.org/dc/dcmitype/StillImage" />
      </cc:Work>
    </rdf:RDF>
  </metadata>
  <g
     inkscape:label="Ebene 1"
     inkscape:groupmode="layer"
     id="layer1"
     transform="translate(-4.9868743,-129.38673)">
    <text
       xml:space="preserve"
       style="font-size:8.83513165px;font-style:normal;font-variant:normal;font-weight:normal;font-stretch:normal;text-align:center;line-height:100%;writing-mode:lr-tb;text-anchor:middle;fill:#000000;fill-opacity:1;stroke:none;stroke-width:1pt;stroke-linecap:butt;stroke-linejoin:miter;stroke-opacity:1;font-family:Arial"
       x="523.75073"
       y="432.55603"
       id="text2603"
       sodipodi:linespacing="100%"
       transform="scale(0.9988539,1.0011474)"><tspan
         sodipodi:role="line"
         id="tspan2605"
         x="523.75073"
         y="432.55603" /></text>
    <text
       xml:space="preserve"
       style="font-size:8.83513165px;font-style:normal;font-variant:normal;font-weight:normal;font-stretch:normal;text-align:center;line-height:100%;writing-mode:lr-tb;text-anchor:middle;fill:#000000;fill-opacity:1;stroke:none;stroke-width:1pt;stroke-linecap:butt;stroke-linejoin:miter;stroke-opacity:1;font-family:Arial"
       x="523.75067"
       y="432.55606"
       id="text2607"
       sodipodi:linespacing="100%"
       transform="scale(0.9988539,1.0011474)"><tspan
         sodipodi:role="line"
         id="tspan2609"
         x="523.75067"
         y="432.55606" /></text>
    <g
       id="g2454"
       style="stroke:none;fill:#ffffff;fill-opacity:1">
      <path
         id="path3203"
         d="M 325.82466,381.05843 L 342.97505,381.05843 L 342.97505,311.54652 L 367.13584,381.05843 L 381.1566,381.05843 L 405.31734,311.54652 L 405.31734,381.05843 L 422.46772,381.05843 L 422.46772,288.33404 L 398.93291,288.33404 L 374.27138,358.59884 L 349.35952,288.33404 L 325.82466,288.33404 L 325.82466,381.05843"
         style="font-size:44.50478745000000202px;font-style:normal;font-variant:normal;font-weight:bold;font-stretch:normal;text-align:start;line-height:100%;writing-mode:lr-tb;text-anchor:start;fill:#ffffff;fill-opacity:1;stroke:none;stroke-width:0;stroke-linecap:butt;stroke-linejoin:miter;stroke-miterlimit:4;stroke-dasharray:none;stroke-opacity:1;font-family:URW Gothic L" />
      <path
         d="M 470.4626,309.91537 C 450.3078,309.91537 433.78333,326.35232 433.78333,346.30247 C 433.78333,366.37812 450.3078,382.68959 470.58782,382.68959 C 490.74262,382.68959 507.51748,366.37812 507.51748,346.80437 C 507.51748,326.10139 491.36856,309.91537 470.4626,309.91537 M 470.58782,325.22304 C 481.72929,325.22304 490.74264,334.75899 490.74264,346.30247 C 490.74264,357.97142 481.72929,367.38191 470.71299,367.38191 C 459.44634,367.38191 450.55814,357.97142 450.55814,346.05153 C 450.55814,334.63354 459.69673,325.22304 470.58782,325.22304"
         style="font-size:44.50478745000000202px;font-style:normal;font-variant:normal;font-weight:bold;font-stretch:normal;text-align:start;line-height:100%;writing-mode:lr-tb;text-anchor:start;fill:#ffffff;fill-opacity:1;stroke:none;stroke-width:0;stroke-linecap:butt;stroke-linejoin:miter;stroke-miterlimit:4;stroke-dasharray:none;stroke-opacity:1;font-family:URW Gothic L"
         id="path3201" />
      <path
         d="M 586.96322,288.33404 L 570.31356,288.33404 L 570.31356,317.69467 C 565.43134,312.29935 557.41947,309.03705 548.65652,309.03705 C 529.25279,309.03705 513.98019,325.34853 513.98019,346.17699 C 513.98019,366.75453 529.12763,382.68959 548.78168,382.68959 C 558.17058,382.68959 565.05581,379.55274 571.69061,372.02439 L 571.69061,381.05843 L 586.96322,381.05843 L 586.96322,288.33404 M 551.03504,324.34474 C 562.67726,324.34474 571.56541,333.75521 571.56541,345.92604 C 571.56541,357.97142 562.67726,367.38191 551.41057,367.38191 C 539.76837,367.38191 530.75499,357.72048 530.75499,345.42414 C 530.75499,333.62975 539.64318,324.34474 551.03504,324.34474"
         style="font-size:44.50478745000000202px;font-style:normal;font-variant:normal;font-weight:bold;font-stretch:normal;text-align:start;line-height:100%;writing-mode:lr-tb;text-anchor:start;fill:#ffffff;fill-opacity:1;stroke:none;stroke-width:0;stroke-linecap:butt;stroke-linejoin:miter;stroke-miterlimit:4;stroke-dasharray:none;stroke-opacity:1;font-family:URW Gothic L"
         id="path3197" />
      <path
         d="M 668.35321,353.70538 C 668.85393,351.32137 668.97918,349.8157 668.97918,347.30626 C 668.97918,325.72496 653.8317,309.91537 633.17613,309.91537 C 612.77097,309.91537 596.62205,326.10139 596.62205,346.55342 C 596.62205,366.87999 613.02133,382.68959 634.17764,382.68959 C 645.56951,382.68959 654.45768,378.54896 661.7184,370.14231 C 664.34729,366.88 666.09989,363.99412 667.22654,360.48088 L 649.0747,360.48088 C 644.81839,365.49981 640.68726,367.38191 633.80206,367.38191 C 623.91245,367.38191 616.65171,362.11202 614.64872,353.70538 L 668.35321,353.70538 M 614.14796,339.02507 C 616.77687,330.11646 623.53689,325.22304 633.42652,325.22304 C 643.69173,325.22304 650.45171,330.11646 652.57986,339.02507 L 614.14796,339.02507"
         style="font-size:44.50478745000000202px;font-style:normal;font-variant:normal;font-weight:bold;font-stretch:normal;text-align:start;line-height:100%;writing-mode:lr-tb;text-anchor:start;fill:#ffffff;fill-opacity:1;stroke:none;stroke-width:0;stroke-linecap:butt;stroke-linejoin:miter;stroke-miterlimit:4;stroke-dasharray:none;stroke-opacity:1;font-family:URW Gothic L"
         id="path3193" />
      <path
         id="path3189"
         d="M 680.10396,380.77781 L 696.5536,380.77781 L 696.5536,272.17353 L 680.10396,272.17353 L 680.10396,380.77781"
         style="font-size:44.50478745000000202px;font-style:normal;font-variant:normal;font-weight:bold;font-stretch:normal;text-align:start;line-height:100%;writing-mode:lr-tb;text-anchor:start;fill:#ffffff;fill-opacity:1;stroke:none;stroke-width:0;stroke-linecap:butt;stroke-linejoin:miter;stroke-miterlimit:4;stroke-dasharray:none;stroke-opacity:1;font-family:URW Gothic L" />
      <path
         id="path2627"
         d="M 709.81652,380.77781 L 726.26616,380.77781 L 726.26616,272.17353 L 709.81652,272.17353 L 709.81652,380.77781"
         style="font-size:44.50478745000000202px;font-style:normal;font-variant:normal;font-weight:bold;font-stretch:normal;text-align:start;line-height:100%;writing-mode:lr-tb;text-anchor:start;fill:#ffffff;fill-opacity:1;stroke:none;stroke-width:0;stroke-linecap:butt;stroke-linejoin:miter;stroke-miterlimit:4;stroke-dasharray:none;stroke-opacity:1;font-family:URW Gothic L" />
    </g>
    <path
       transform="scale(1.0372252,0.9641107)"
       style="font-size:84.62747192000000496px;font-style:normal;font-variant:normal;font-weight:normal;font-stretch:normal;text-align:start;line-height:100%;writing-mode:lr-tb;text-anchor:start;fill:#ffffff;fill-opacity:1;stroke:none;stroke-width:2.22840046999999997;stroke-linecap:butt;stroke-linejoin:miter;stroke-miterlimit:4;stroke-opacity:1;font-family:URW Gothic L;-inkscape-font-specification:URW Gothic L"
       d="M 315.85124,264.1861 L 322.11368,264.1861 L 322.11368,208.50122 L 345.55549,264.1861 L 350.97164,264.1861 L 374.49808,208.50122 L 374.49808,264.1861 L 380.76051,264.1861 L 380.76051,201.64639 L 371.02836,201.64639 L 348.34819,254.87707 L 325.5834,201.64639 L 315.85124,201.64639 L 315.85124,264.1861 M 433.39219,217.89487 L 427.12976,217.89487 L 427.12976,241.67519 C 427.12976,247.34522 426.28348,250.89959 424.33705,253.77692 C 421.7136,257.41589 417.56685,259.53159 412.74309,259.53159 C 407.58082,259.53159 403.18018,257.41589 401.0645,253.69229 C 399.62583,251.32272 398.86418,247.59911 398.86418,242.85997 L 398.86418,217.89487 L 392.60175,217.89487 L 392.60175,242.85997 C 392.60175,249.71479 393.78654,254.53857 396.24073,257.92366 C 399.71045,262.74742 405.29588,265.28625 412.23532,265.28625 C 419.42865,265.28625 423.99854,262.74742 427.12976,256.99276 L 427.12976,264.1861 L 433.39219,264.1861 L 433.39219,217.89487 M 403.68795,200.80012 L 403.68795,211.46318 L 409.95038,211.46318 L 409.95038,200.80012 L 403.68795,200.80012 M 416.12819,200.80012 L 416.12819,211.46318 L 422.39062,211.46318 L 422.39062,200.80012 L 416.12819,200.80012 M 444.00634,264.1861 L 450.26877,264.1861 L 450.26877,238.71323 C 450.26877,233.55096 450.94579,230.84287 452.72297,228.21942 C 455.17716,224.66507 459.49317,222.54938 464.40156,222.54938 C 468.97144,222.54938 473.11819,224.41119 475.65701,227.5424 C 477.85732,230.41973 478.7036,233.80484 478.7036,239.89801 L 478.7036,264.1861 L 484.96603,264.1861 L 484.96603,239.89801 C 484.96603,232.11229 483.86587,227.96553 480.90391,223.98805 C 477.26494,219.41817 471.67951,216.79471 465.1632,216.79471 C 459.07003,216.79471 454.16163,219.16429 450.26877,223.90342 L 450.26877,217.89487 L 444.00634,217.89487 L 444.00634,264.1861 M 534.58945,250.56107 C 529.76569,256.99275 525.28043,259.53159 518.76412,259.53159 C 508.35495,259.53159 500.14607,251.32271 500.14607,241.0828 C 500.14607,230.67363 508.18569,222.54938 518.51024,222.54938 C 525.36505,222.54938 531.0351,225.84986 534.58945,231.94303 L 541.61353,231.94303 C 537.88993,222.63402 529.00403,216.79471 518.59486,216.79471 C 504.71597,216.79471 493.79901,227.45779 493.79901,240.91354 C 493.79901,254.70781 504.8006,265.28625 519.018,265.28625 C 524.77266,265.28625 530.1042,263.42445 534.4202,260.03935 C 537.38216,257.66978 539.15934,255.38483 541.69816,250.56107 L 534.58945,250.56107 M 550.28653,264.1861 L 556.54897,264.1861 L 556.54897,238.79785 C 556.54897,233.80484 557.22599,230.84287 559.08779,228.30405 C 561.62661,224.66507 565.94262,222.54938 570.68175,222.54938 C 575.167,222.54938 579.39839,224.49581 581.85258,227.62703 C 584.05289,230.3351 584.9838,233.88947 584.9838,239.30562 L 584.9838,264.1861 L 591.24623,264.1861 L 591.24623,239.30562 C 591.24623,232.36617 589.97681,227.62702 587.26874,223.98805 C 583.79901,219.41817 577.95971,216.79471 571.27415,216.79471 C 564.92709,216.79471 559.68018,219.33354 556.54897,223.90342 L 556.54897,201.64639 L 550.28653,201.64639 L 550.28653,264.1861 M 648.23226,243.11386 C 648.23226,236.7668 647.38598,232.87393 645.10104,228.81181 C 640.9543,221.44923 632.91468,216.79471 624.11343,216.79471 C 610.65767,216.79471 600.07923,227.37316 600.07923,240.82891 C 600.07923,254.53855 610.82693,265.28625 624.53657,265.28625 C 630.46048,265.28625 636.04591,263.08594 640.27727,259.10845 C 643.57774,255.97723 645.77806,252.76138 647.04747,248.95315 L 640.53116,248.95315 C 637.90771,255.30021 631.39138,259.53159 624.36731,259.53159 C 614.88904,259.53159 606.84942,252.25361 606.34166,243.11386 L 648.23226,243.11386 M 606.51091,237.44382 C 608.20346,228.55794 615.22755,222.54938 624.0288,222.54938 C 632.9993,222.54938 639.85414,228.21943 641.96982,237.44382 L 606.51091,237.44382 M 656.89733,264.1861 L 663.15976,264.1861 L 663.15976,238.71323 C 663.15976,233.55096 663.83678,230.84287 665.61396,228.21942 C 668.06815,224.66507 672.38416,222.54938 677.29255,222.54938 C 681.86243,222.54938 686.00918,224.41119 688.548,227.5424 C 690.74831,230.41973 691.59459,233.80484 691.59459,239.89801 L 691.59459,264.1861 L 697.85702,264.1861 L 697.85702,239.89801 C 697.85702,232.11229 696.75686,227.96553 693.7949,223.98805 C 690.15593,219.41817 684.5705,216.79471 678.05419,216.79471 C 671.96102,216.79471 667.05262,219.16429 663.15976,223.90342 L 663.15976,217.89487 L 656.89733,217.89487 L 656.89733,264.1861"
       id="text2613" />
    <g
       id="g2449"
       style="stroke:none;fill:#ffffff;fill-opacity:1">
      <path
         id="path3209"
         d="M 146.46292,381.05843 L 163.11258,381.05843 L 163.11258,348.56098 L 186.77258,381.05843 L 209.18077,381.05843 L 180.38815,345.54964 L 205.17483,311.54652 L 185.27037,311.54652 L 163.11258,344.29491 L 163.11258,288.33404 L 146.46292,288.33404 L 146.46292,381.05843"
         style="font-size:44.50478745000000202px;font-style:normal;font-variant:normal;font-weight:bold;font-stretch:normal;text-align:start;line-height:100%;writing-mode:lr-tb;text-anchor:start;fill:#ffffff;fill-opacity:1;stroke:none;stroke-width:0;stroke-linecap:butt;stroke-linejoin:miter;stroke-miterlimit:4;stroke-dasharray:none;stroke-opacity:1;font-family:URW Gothic L" />
      <path
         d="M 280.99466,311.54652 L 265.72206,311.54652 L 265.72206,320.83149 C 259.96355,313.17767 253.07833,309.91537 243.0635,309.91537 C 222.53311,309.91537 207.76123,325.34853 207.76123,346.55342 C 207.76123,367.50735 222.40796,382.68959 242.68797,382.68959 C 252.45243,382.68959 259.08725,379.55274 265.72206,372.02439 L 265.72206,381.05843 L 280.99466,381.05843 L 280.99466,311.54652 M 244.8161,325.22304 C 256.70871,325.22304 265.2213,334.13164 265.2213,346.80437 C 265.2213,351.82329 263.21835,357.59505 260.21391,361.10824 C 256.83392,365.12338 251.45094,367.38191 245.06648,367.38191 C 232.92352,367.38191 224.53607,359.10068 224.53607,346.92983 C 224.53607,334.2571 232.92352,325.22304 244.8161,325.22304"
         style="font-size:44.50478745000000202px;font-style:normal;font-variant:normal;font-weight:bold;font-stretch:normal;text-align:start;line-height:100%;writing-mode:lr-tb;text-anchor:start;fill:#ffffff;fill-opacity:1;stroke:none;stroke-width:0;stroke-linecap:butt;stroke-linejoin:miter;stroke-miterlimit:4;stroke-dasharray:none;stroke-opacity:1;font-family:URW Gothic L"
         id="path3207" />
      <path
         id="path3493"
         transform="translate(4.9868743,129.38673)"
         d="M 67.90625 114.53125 L 58.03125 142.5 C 65.276101 141.40262 73.728777 140.75001 83.78125 140.75 L 97.25 140.75 L 87.90625 114.53125 L 67.90625 114.53125 z M 83.78125 152.125 C 71.214157 152.125 61.468167 153.1925 53.65625 154.84375 L 48.65625 169 L 40.40625 192.3125 L 19.40625 251.65625 L 47.375 251.65625 L 66.90625 192.3125 L 74.59375 169 L 74.5625 169 L 77.90625 158.84375 L 81.28125 169 L 89.0625 192.3125 L 108.84375 251.65625 L 136.78125 251.65625 L 107.34375 169 L 107.3125 169 L 101.3125 152.125 L 83.78125 152.125 z "
         style="font-size:44.50478745000000202px;font-style:normal;font-variant:normal;font-weight:bold;font-stretch:normal;text-align:start;line-height:100%;writing-mode:lr-tb;text-anchor:start;fill:#ffffff;fill-opacity:1;stroke:none;stroke-width:0;stroke-linecap:butt;stroke-linejoin:miter;stroke-miterlimit:4;stroke-dasharray:none;stroke-opacity:1;font-family:URW Gothic L" />
    </g>
    <g
       id="g2462"
       style="stroke:none;fill:#ffffff;fill-opacity:1">
      <path
         sodipodi:nodetypes="cccccccccsssssccczsssssscccssssccsssscccccsssccsscccccccccssccssscccccsssscsssssscccsssssccsssssssssssscccccscccccc"
         id="path2611"
         d="M 348.46173,274.99983 C 347.56699,274.09817 346.51232,273.13892 345.31658,272.48969 C 344.72751,272.17533 343.77644,271.57584 343.57546,271.45896 C 343.55511,271.21547 343.53302,270.88216 343.49926,270.49025 C 343.27001,267.35174 342.71242,262.5726 342.18407,261.88662 C 341.5507,262.30912 340.6906,267.47924 340.23015,270.3498 C 336.44524,269.30636 331.44965,268.968 319.80443,268.99182 L 316.13957,269.02147 L 316.1647,263.55121 C 316.15217,256.47897 316.0734,253.94458 315.74349,244.96366 C 315.23208,231.04727 315.15929,229.48518 314.0847,212.84952 C 313.27194,200.26711 313.10827,198.02571 312.0947,186.48508 C 310.94544,173.39988 310.0042,165.9613 308.73079,159.64703 C 307.92358,155.64461 307.36416,153.41705 306.68031,151.59713 C 304.17894,144.94019 298.85484,140.15927 293.09191,139.9016 L 292.26957,139.87362 L 291.07024,139.81411 C 291.50446,141.23883 291.9492,142.34807 292.29866,143.54317 C 292.66252,144.78767 292.76083,145.66467 292.87488,147.10435 C 292.96168,148.19968 292.92592,151.18605 292.81386,152.36715 C 292.76637,152.86791 292.60265,154.28869 292.46179,155.48576 C 292.03323,159.12739 291.86538,161.0842 291.35811,167.5079 C 290.87368,173.64369 290.03993,187.23458 289.26436,201.55642 C 288.70398,211.90538 288.57387,214.75427 288.2288,226.49134 C 287.77187,242.02948 287.7253,248.02257 287.88589,261.04507 L 287.98376,269.07615 L 287.50428,269.08001 C 285.28453,269.08508 277.09523,269.46282 275.2805,269.66361 C 274.62195,269.73655 273.18966,269.93223 272.06388,270.07055 C 263.41324,271.13318 259.8982,271.44594 252.45151,271.92566 C 243.76403,272.48522 242.23102,272.53138 228.92513,272.63529 C 223.36079,272.67868 218.36114,272.73183 217.51978,272.76217 L 217.34854,272.76357 C 217.32613,272.16429 217.31182,271.5924 217.26249,270.54858 C 217.19235,269.06432 217.11191,267.46868 217.05996,266.60349 C 216.67,260.10409 215.91588,256.33921 214.28174,253.15874 C 213.30417,251.25626 211.9156,249.85467 210.00059,248.90045 C 208.54773,248.17661 206.80041,247.73143 205.19523,247.65847 L 204.44144,247.62994 L 203.51618,247.56811 L 203.31805,248.50449 L 203.25062,248.64354 C 203.13749,249.1143 203.24723,249.46501 203.43124,249.81908 C 203.37851,249.71779 203.50547,250.19538 203.50745,250.78788 C 203.50928,251.38038 203.45217,252.13169 203.31863,252.90123 C 202.63529,256.83794 202.4552,260.59842 202.40378,271.46508 L 202.38736,273.7155 C 202.24552,273.71833 202.07329,273.70389 201.94211,273.71909 C 201.82609,273.73259 201.70846,273.76849 201.49795,273.86121 C 201.48688,273.86601 201.47568,273.89016 201.46398,273.89605 L 201.18994,273.8983 L 200.05968,273.90742 L 200.03447,275.05015 L 200.03613,275.25789 L 200.03803,275.50014 L 200.04682,276.60798 L 201.17736,276.63337 L 201.48563,276.63089 C 201.44295,276.62097 201.34855,276.63353 201.10699,276.39163 C 201.45264,276.73731 201.77779,276.74153 202.00052,276.76519 C 202.12217,276.77822 202.27749,276.79363 202.41176,276.7965 L 202.46438,279.11569 C 202.6805,290.06595 202.90911,293.8548 203.67433,297.80077 C 203.80011,298.44948 203.89301,299.15997 203.89518,299.73774 C 203.89723,300.31542 203.72782,300.85111 203.80011,300.70784 C 203.61984,301.06591 203.552,301.38272 203.67212,301.85133 L 203.70776,302.02416 L 203.95466,302.92228 L 204.84487,302.88044 L 205.63237,302.83944 C 208.32669,302.70748 211.00484,301.64076 212.80211,299.87335 C 213.56052,299.12751 214.13306,298.26335 214.66475,297.19255 C 216.24631,294.00731 216.95528,289.99636 217.22641,283.28907 C 217.25772,282.51328 217.2921,281.00097 217.3343,279.61852 C 217.36281,278.6857 217.37458,278.22295 217.3875,277.67932 C 217.81944,277.69405 219.06898,277.70573 221.05297,277.71893 C 223.0924,277.73245 225.74641,277.71808 228.55443,277.72746 C 238.15632,277.75942 241.12716,277.82895 245.20344,277.97351 C 247.26085,278.04659 257.49559,278.6383 259.28802,278.79433 C 262.86145,279.10509 266.16954,279.45851 271.52663,280.08011 C 273.24781,280.27983 275.05842,280.47729 275.5721,280.53208 C 277.23831,280.70948 285.4057,281.06334 287.49641,281.05872 L 288.07864,281.054 L 288.07385,289.0859 C 288.10916,302.1046 288.27526,308.19577 288.96426,323.66428 C 289.27064,330.54155 289.39418,333.3554 289.54143,335.98437 C 290.11554,346.23715 292.13914,373.61767 292.91967,381.93249 C 293.55355,388.68511 293.78992,390.90164 294.25144,394.38506 C 294.71934,397.91689 294.75934,398.44654 294.81236,400.33524 C 294.89111,403.14104 294.70104,405.16138 294.2463,406.70986 C 294.00143,407.80018 293.56897,409.16651 293.18305,410.11746 C 293.52212,410.32759 294.09512,410.23189 294.17151,410.24169 C 294.24789,410.25157 294.29576,410.23914 294.34282,410.24039 C 294.4368,410.24289 294.52488,410.2422 294.6168,410.23814 C 294.80055,410.2301 295.03693,410.22005 295.26728,410.19826 C 295.72794,410.15467 296.22002,410.09106 296.60171,410.01432 C 299.37007,409.45802 301.88696,408.01314 304.06947,405.76492 C 306.62341,403.134 308.38149,399.74617 309.40085,395.57804 C 310.35273,391.68531 311.2018,386.66744 311.82273,381.32948 C 312.30531,377.18039 312.70457,372.97162 313.05646,368.44082 C 313.98544,356.47975 314.35353,350.32892 315.06067,336.05481 C 315.80805,320.96671 315.91455,318.82225 316.19348,306.09922 C 316.24326,303.83089 316.31317,300.80723 316.34583,299.38167 C 316.38569,297.63962 316.37079,293.84614 316.32655,288.30338 L 316.26787,280.89515 L 322.05714,280.95212 L 323.18741,280.94298 L 325.58496,280.92361 C 331.12566,280.87901 334.98844,280.61936 337.97816,280.09624 C 338.80505,279.95164 339.58805,279.72834 340.33704,279.52327 C 340.88577,281.98985 341.94382,287.47478 342.42272,287.81732 C 342.88806,287.31511 343.34028,282.27356 343.56891,279.27928 C 343.5966,278.88835 343.61339,278.58728 343.62999,278.34402 C 343.82938,278.22671 344.77616,277.71876 345.35549,277.40542 C 346.55428,276.7145 347.64657,275.89703 348.46173,274.99983 z"
         style="fill:#ffffff;fill-opacity:1;stroke:none;stroke-width:2.06699990999999983;stroke-miterlimit:4;stroke-dasharray:none;stroke-opacity:1" />
      <rect
         y="272.06158"
         x="358.38159"
         height="7.495101"
         width="310.80936"
         id="rect2422"
         style="fill:#ffffff;fill-opacity:1;stroke:none;stroke-width:4;stroke-miterlimit:3.79999995000000013;stroke-dasharray:none;stroke-dashoffset:0;stroke-opacity:1" />
      <path
         transform="translate(4.9868743,129.38673)"
         sodipodi:nodetypes="cssssccsscsccccccccc"
         id="path3474"
         d="M 83.8125,142.6875 C 56.368331,142.6875 40.914684,147.55046 30.53125,153 C 20.147819,158.44953 10.8125,166.56737 10.8125,177.15625 C 10.8125,180.25577 10.84375,184.43166 10.84375,186.28125 C 10.84375,194.22237 15.627922,202.08289 23.125,209.03125 C 25.257872,211.00801 27.491631,212.62837 29.96875,214.03125 L 35.59375,198.15625 C 31.773942,197.19241 28.293344,196.00754 25.53125,194.53125 C 21.33786,192.28997 17.749003,189.75425 15.21875,186.90625 C 13.686713,185.18183 12.537103,183.31977 11.875,181.34375 C 13.499172,174.96849 20.37547,168.58472 27.84375,163.4375 C 37.174578,157.0066 51.83307,150.15625 83.8125,150.15625 L 183.5625,150.15625 L 183.5625,142.6875 L 83.8125,142.6875 z M 66.3125,202.34375 L 59.46875,223.125 C 70.503998,225.4092 84.150062,227.25792 98.3125,228.375 L 89.84375,202.96875 C 81.241435,202.90598 73.156472,202.76341 66.3125,202.34375 z"
         style="fill:#ffffff;fill-opacity:1;fill-rule:evenodd;stroke:none;stroke-width:0.38249999000000001;stroke-linecap:butt;stroke-linejoin:miter;stroke-miterlimit:4;stroke-dasharray:none;stroke-opacity:1" />
    </g>
  </g>
</svg>
