<svg class="w-auto h-14" viewBox="0 0 1000 1191" fill="none" xmlns="http://www.w3.org/2000/svg">
    <path
        d="M382.88 241.273C433.724 241.273 463.944 223.046 483.61 197.623L446.675 165.006C434.684 180.835 413.578 192.347 387.676 192.347C346.425 192.347 318.124 163.567 318.124 120.397C318.124 77.7063 345.945 48.4465 387.676 48.4465C413.099 48.4465 433.245 59.4789 446.675 75.3079L483.13 43.6498C459.626 14.8697 421.253 0 384.798 0C313.807 0 263.442 48.9262 263.442 120.876C263.442 192.347 313.807 241.273 382.88 241.273Z"
        fill="#fff"></path>
    <path
        d="M490.896 544.57C490.896 476.457 446.287 427.051 380.573 427.051C311.98 427.051 263.054 475.497 263.054 547.448C263.054 620.837 313.419 668.324 384.41 668.324C434.775 668.324 464.035 649.617 483.701 624.194L446.287 592.057C434.296 606.926 415.109 619.398 387.288 619.398C350.833 619.398 325.411 599.252 318.696 565.195H489.457C489.937 561.358 490.896 553.204 490.896 544.57ZM380.093 475.497C410.792 475.497 429.979 494.684 436.694 522.984H319.655C327.33 492.286 350.354 475.497 380.093 475.497Z"
        fill="#fff"></path>
    <path
        d="M641.363 636.592H679.17V566.712H747.074V527.974H679.17V457.715H641.363V527.974H573.459V566.712H641.363V636.592Z"
        fill="#fff"></path>
    <path
        d="M347.027 1096.26C406.505 1096.26 434.326 1064.61 434.326 1025.27C434.326 978.745 403.148 969.631 353.262 949.965C330.718 941.331 316.328 933.176 316.328 921.664C316.328 907.274 331.197 901.518 341.75 901.518C359.978 901.518 381.563 908.713 400.27 926.461L427.131 884.25C401.229 863.145 374.368 854.99 344.628 854.99C296.661 854.99 262.125 882.811 262.125 921.184C262.125 967.233 295.222 984.501 333.596 997.931C364.295 1008.48 379.644 1014.24 379.644 1026.23C379.644 1040.14 367.652 1049.26 347.027 1049.26C318.246 1049.26 298.1 1040.14 279.393 1021.91L252.532 1062.21C276.995 1083.79 309.133 1096.26 347.027 1096.26Z"
        fill="#fff"></path>
    <path d="M455.133 1092.43H508.856V858.348H455.133V1092.43Z" fill="#fff"></path>
    <path
        d="M781.271 1092.43H834.994V974.907C834.994 928.859 858.977 903.437 895.432 903.437C927.57 903.437 946.277 919.266 946.277 968.672V1092.43H1000V954.761C1000 884.25 965.464 854.99 914.139 854.99C883.44 854.99 855.14 867.462 835.953 890.486H834.994V858.348H781.271V1092.43Z"
        fill="#fff"></path>
    <path d="M194.66 326.182H242.01V546.959H194.66V326.182Z" fill="#fff"></path>
    <path fill-rule="evenodd" clip-rule="evenodd"
        d="M121.005 619.751C161.103 619.751 193.608 587.245 193.608 547.148C193.608 507.05 161.103 474.545 121.005 474.545C80.9075 474.545 48.4021 507.05 48.4021 547.148C48.4021 587.245 80.9075 619.751 121.005 619.751ZM121.005 668.153C187.834 668.153 242.01 613.977 242.01 547.148C242.01 480.318 187.834 426.143 121.005 426.143C54.1758 426.143 6.10352e-05 480.318 6.10352e-05 547.148C6.10352e-05 613.977 54.1758 668.153 121.005 668.153Z"
        fill="#fff"></path>
    <path fill-rule="evenodd" clip-rule="evenodd"
        d="M482.705 823.359C502.318 823.359 518.217 807.459 518.217 787.846C518.217 768.233 502.318 752.334 482.705 752.334C463.092 752.334 447.192 768.233 447.192 787.846C447.192 807.459 463.092 823.359 482.705 823.359Z"
        fill="#fff"></path>
    <path fill-rule="evenodd" clip-rule="evenodd"
        d="M620.808 193.608C660.906 193.608 693.411 161.103 693.411 121.005C693.411 80.9075 660.906 48.402 620.808 48.402C580.711 48.402 548.205 80.9075 548.205 121.005C548.205 161.103 580.711 193.608 620.808 193.608ZM620.808 242.01C687.637 242.01 741.813 187.834 741.813 121.005C741.813 54.1758 687.637 0 620.808 0C553.979 0 499.803 54.1758 499.803 121.005C499.803 187.834 553.979 242.01 620.808 242.01Z"
        fill="#fff"></path>
    <path
        d="M760.051 1068.43C760.051 1139.43 727.434 1190.75 640.614 1190.75C605.598 1190.75 571.541 1182.12 545.16 1166.29L558.111 1119.28C583.533 1132.71 604.159 1142.3 637.736 1142.3C683.784 1142.3 707.288 1115.92 707.288 1084.74V1004.87C707.288 1004.87 715 990.606 715 973.303C715 956 707.288 944.367 707.288 944.367V858.34H760.051V1068.43Z"
        fill="#fff"></path>
    <path fill-rule="evenodd" clip-rule="evenodd"
        d="M641.853 1042.75C680.207 1042.75 711.299 1011.66 711.299 973.303C711.299 934.948 680.207 903.856 641.853 903.856C603.499 903.856 572.406 934.948 572.406 973.303C572.406 1011.66 603.499 1042.75 641.853 1042.75ZM641.853 1089.05C705.776 1089.05 757.597 1037.23 757.597 973.303C757.597 909.379 705.776 857.559 641.853 857.559C577.929 857.559 526.109 909.379 526.109 973.303C526.109 1037.23 577.929 1089.05 641.853 1089.05Z"
        fill="#fff"></path>
</svg>