<?xml version="1.0" encoding="UTF-8"?>
<svg id="svg2" xmlns="http://www.w3.org/2000/svg" xmlns:xlink="http://www.w3.org/1999/xlink" viewBox="0 0 440.3 100.75">
  <defs>
    <style>
      .cls-1 {
        font-family: Georgia, Georgia;
        font-size: 16px;
      }

      .cls-1,
      .cls-2,
      .cls-3 {
        fill: #dce0df;
      }

      .cls-4 {
        fill: none;
      }

      .cls-4,
      .cls-2,
      .cls-3 {
        stroke-width: 0px;
      }

      .cls-5 {
        clip-path: url(#clippath);
      }

      .cls-3 {
        fill-rule: evenodd;
      }
    </style>
    <clipPath id="clippath">
      <rect class="cls-4" width="100.75" height="100.75" />
    </clipPath>
  </defs>
  <g id="layer1">
    <g id="g2995">
      <path id="path2997" class="cls-2"
        d="m32.49,42.9l3.57,4.55-5.21,2.93h-1.44l5.58-3.14-3.85-4.9,1.34.56Zm9.15-5.46l.7-6.28,4.9,3.85,3.14-5.58,3.14,5.58,4.9-3.85.7,6.28,5.95-1.75-1.75,5.95,6.29.7-1.4,1.78-.61-.37.67-.85-5.86-.65,1.62-5.52-5.52,1.62-.65-5.86-4.55,3.57-2.93-5.21-2.93,5.21-4.55-3.57-.65,5.86-.61-.92Z" />
    </g>
    <g id="g2999">
      <path id="path3001" class="cls-2"
        d="m36.44,44.55l2.78,3.54-4.06,2.28h-1.44s4.44-2.5,4.44-2.5l-3.06-3.89,1.34.56Zm27.87,0l-4.57-.51,1.26-4.29-4.3,1.26-.51-4.57-3.54,2.78-2.28-4.06-2.28,4.06-3.54-2.78-.51,4.57-4.3-1.26-1.04-1.04,4.73,1.39.56-4.99,3.89,3.06,2.5-4.44,2.5,4.44,3.89-3.06.56,4.99,4.73-1.39-1.39,4.73,4.99.56-1.34.56Z" />
    </g>
    <g id="g3003">
      <path id="path3005" class="cls-2" d="m68.56,42.46l17.78-7.36.27.65-17.77,7.36-.27-.65Z" />
    </g>
    <g id="g3007">
      <path id="path3009" class="cls-2" d="m64.12,36.13l13.63-13.63.5.5-13.63,13.63-.5-.5Z" />
    </g>
    <g id="g3011">
      <path id="path3013" class="cls-2" d="m57.6,32.01l7.4-17.86.65.27-7.4,17.86-.65-.27Z" />
    </g>
    <g id="g3015">
      <path id="path3017" class="cls-2" d="m32.05,43.17l-17.9-7.41.27-.65,17.9,7.41-.27.65Z" />
    </g>
    <g id="g3019">
      <path id="path3021" class="cls-2" d="m36.11,36.61l-13.61-13.61.5-.5,13.61,13.61-.5.5Z" />
    </g>
    <g id="g3023">
      <path id="path3025" class="cls-2" d="m42.42,32.1l-7.32-17.68.65-.27,7.32,17.68-.65.27Z" />
    </g>
    <g id="g3027">
      <path id="path3029" class="cls-2" d="m50.02,30.81V11.31h.71v19.5h-.71Z" />
    </g>
    <g id="g3031">
      <path id="path3033" class="cls-2"
        d="m43.31,45.83l.3-.03-.91-3.1,3.1.91.37-3.3,1.98,1.56.02-.06.09-.44.09-.09v-.09l.18.09v.18l-.18.44-.03.11.41.31.94-1.69-.17-.23-.35-.27-.63,1.12-2.91-2.29-.42,3.73-3.54-1.04.91,3.08.75,1.1Z" />
    </g>
    <g id="g3035">
      <path id="path3037" class="cls-2" d="m38.96,45.6l2.29,2.91-3.32,1.86h1.44l2.94-1.65-1.94-2.46-1.42-.66Z" />
    </g>
    <g id="g3039">
      <path id="path3041" class="cls-2"
        d="m51.7,40.3l-.18.18-.27.27-.08.08-.81-1.45-.62,1.08-.08-.06-.35-.27-.13-.1,1.19-2.09,1.33,2.37Z" />
    </g>
    <g id="g3043">
      <path id="path3045" class="cls-2"
        d="m52.61,41.83l-.18-.75-.19.16-.4-.7-.05.03-.09.09-.27.27-.11.16.7,1.23.58-.48Z" />
    </g>
    <g id="g3047">
      <path id="path3049" class="cls-2"
        d="m58.75,48.33l1.7-2.16-3.31-.37.91-3.11-.88.26.17-.53-.18-.09-.24.69-1.31.39-.03-.19h-.18l.04.24-.49.15-.37-3.3-1.82,1.44-.18-.73h-.06l2.62-2.05.42,3.73,3.54-1.04-1.04,3.54,3.73.42-2.05,2.61-.99.12Z" />
    </g>
    <g id="g3051">
      <path id="path3053" class="cls-2" d="m44.28,51.08l-2.3-.62v.18l1.64.44H11.22v-1.41h32.67l.39,1.41Z" />
    </g>
    <g id="g3055">
      <path id="path3057" class="cls-2" d="m33.08,54.95v-.71h10.31l-.03.71h-10.28Z" />
    </g>
    <path id="path3059" class="cls-2" d="m57.11,54.24h11.91v.71h-11.91v-.71Z" />
    <path id="path3061" class="cls-2" d="m34.17,58.48h12.05v.71h-12.05v-.71Z" />
    <g id="g3063">
      <path id="path3065" class="cls-2" d="m54.71,59.19l.66-.71h12.42v.71h-13.08Z" />
    </g>
    <g id="g3067">
      <path id="path3069" class="cls-2" d="m34.79,63.43v-.71h12.82l.22.71h-13.04Z" />
    </g>
    <g id="g3071">
      <path id="path3073" class="cls-2" d="m51.63,63.43l.41-.71h12.92v.71s-13.33,0-13.33,0Z" />
    </g>
    <g id="g3075">
      <path id="path3077" class="cls-2" d="m51.87,67.68l.35-.71h12.62v.71h-12.97Z" />
    </g>
    <g id="g3079">
      <g class="cls-5">
        <g id="g3081">
          <g id="g3087">
            <path id="path3089" class="cls-2" d="m36.06,67.68v-.71l10.32.02.08.43.15.26h-10.55Z" />
          </g>
          <path id="path3091" class="cls-2" d="m37.68,71.21h25.63v.71h-25.63v-.71Z" />
          <path id="path3093" class="cls-2" d="m38.77,75.45h22.65v.71h-22.65v-.71Z" />
          <path id="path3095" class="cls-2" d="m41.33,79.69h18.62v.71h-18.62v-.71Z" />
          <path id="path3097" class="cls-2" d="m42.42,83.93h14.16v.71h-14.16v-.71Z" />
          <g id="g3099">
            <path id="path3101" class="cls-2" d="m40.17,88.18h20.47l-3.03.71h-14.3l-3.14-.71Z" />
          </g>
          <path id="path3103" class="cls-2" d="m11.45,53.91h22.49v1.41H11.45v-1.41Z" />
          <g id="g3105">
            <path id="path3107" class="cls-2" d="m12.28,59.57l-.26-1.41h22.98v1.41H12.28Z" />
          </g>
          <g id="g3109">
            <path id="path3111" class="cls-2" d="m13.43,63.81l-.41-1.41h22.51v1.41H13.43Z" />
          </g>
          <g id="g3113">
            <path id="path3115" class="cls-2" d="m15.16,68.05l-.52-1.41h22.12v1.41H15.16Z" />
          </g>
          <g id="g3117">
            <path id="path3119" class="cls-2" d="m17.63,72.29l-.81-1.41h21.71v1.41h-20.9Z" />
          </g>
          <g id="g3121">
            <path id="path3123" class="cls-2" d="m20.87,76.54l-1.11-1.41h20.01v1.41h-18.89Z" />
          </g>
          <g id="g3125">
            <path id="path3127" class="cls-2" d="m25.19,80.78l-1.49-1.42h18.19v1.42h-16.7Z" />
          </g>
          <g id="g3129">
            <path id="path3131" class="cls-2" d="m31.55,85.02l-2.34-1.41h13.65v1.41h-11.31Z" />
          </g>
          <g id="g3133">
            <path id="path3135" class="cls-2" d="m72.71,55.32h-5.37v-1.41h2.92l2.45,1.41Z" />
          </g>
          <g id="g3137">
            <path id="path3139" class="cls-2" d="m85.15,53.91h4.15v1.41h-3.51l-.64-1.41Z" />
          </g>
          <g id="g3141">
            <path id="path3143" class="cls-2" d="m66.81,59.57v-1.41h21.98l-.33,1.41h-21.65Z" />
          </g>
          <g id="g3145">
            <path id="path3147" class="cls-2" d="m64.34,63.81v-1.41h23.5l-.52,1.41h-22.98Z" />
          </g>
          <g id="g3149">
            <path id="path3151" class="cls-2" d="m64.25,68.05v-1.41h21.95l-.61,1.41h-21.34Z" />
          </g>
          <g id="g3153">
            <path id="path3155" class="cls-2" d="m62.39,72.29v-1.41h21.65l-.93,1.41h-20.72Z" />
          </g>
          <g id="g3157">
            <path id="path3159" class="cls-2" d="m60.36,76.54v-1.41h20.73l-1.24,1.41h-19.49Z" />
          </g>
          <g id="g3161">
            <path id="path3163" class="cls-2" d="m59.21,80.78v-1.42h17.87l-1.39,1.42h-16.48Z" />
          </g>
          <g id="g3165">
            <path id="path3167" class="cls-2" d="m56.21,85.02v-1.41h15.42l-2.34,1.41h-13.08Z" />
          </g>
          <g id="g3169">
            <path id="path3171" class="cls-2" d="m79.04,49.67h10.57v1.41h-8.83l-1.75-1.41Z" />
          </g>
          <g id="g3173">
            <path id="path3175" class="cls-2"
              d="m65.38,51.08h-7.31l-.04-.18-.13-.62.27.09.27.09.71-.07.71-.02,2.38-.49.35-.19.29-.03h.41l2.12,1.42Z" />
          </g>
          <g id="g3177">
            <path id="path3179" class="cls-3" d="m50.64,41.18l.18.09-.16.2-.2-.27h.17Z" />
          </g>
          <g id="g3181">
            <path id="path3183" class="cls-3" d="m55.78,44.18l.27,1.36.3-.86-.24-.23-.34-.27Z" />
          </g>
          <g id="g3185">
            <path id="path3187" class="cls-3"
              d="m51.58,50.4l2.24-1.61-.09-.27-2.12,1.59-.62-1.68-.27.09.71,1.68-.19.13-.61-.13h-.88l-.62.09h-.88l-.35.09-.35.09-.13.08-.75-3.08-.27.09.97,3.98h.27l-.19-.84.28-.04h.62l.71-.09h1.24l.53.09.44.09h.18l.62.18.62.18.71.27.97.27v-.09l-.32-.24,2.58-.54.04.08.53.27.09.09h.18l.18.09.27.09.09-.09v-.44l-.09-.35-.09-.35-.09-.18.18.27.09.09.09.06.09.03h.53l.62-.09.8-.09.62-.09h.35l.35-.09.44-.09.44-.18.35-.18.35-.09,1.59,1.06.71.44.62.44.53.35.44.27.27.18.09.09.71-.18v-.27l-.09-.35-.44-.88-.62-.53-.62-.53-.44-.35-.09-.09h-.09.27l.62.09.71.27.88.35,2.12,1.15.97.53.88.44.71.35.53.35.44.18.09.09,4.07,2.21.35.18.35.09.53.27.62.18.44.09.44.18,2.12.71,1.06.27.88.27.8.27.53.09.44.18h.09l-.09-.35-.44-.18-.53-.09-1.24-.35-1.5-.44-1.59-.53-.18-.09-.35-.18-.71-.27-.8-.35-1.06-.44-1.15-.53-1.24-.62-1.24-.62-.09-.09-.35-.18-.53-.27-.62-.35-.8-.44-.8-.53-1.86-1.15-.8-.44-.62-.35-.62-.27-.53-.27-.53-.18-.53-.09-.44-.18-.62-.09h-.53l-.71.18-.88.18-1.06.35h-.27l-.18-.09v-.27l.18-.18.44-.27.53-.18.44-.27.71-.27h.27l.35.09.53.09.62.09.71.18.8.18,1.68.35,1.68.35.71.18.71.09.53.18.44.09.27.09h.09l-.09-.27-.35-.09-.35-.09-1.06-.35-1.33-.27-1.33-.35-1.41-.35-1.33-.35-1.15-.27-.53-.09-.35-.09h-.53l-.44.09-.71.27-.88.8-.53.35-.35.09-.44.09h-.44l-.44.09h-.53l-1.15.09h-.88l-.09.27-.18.44.09.35.09.18.09.18.18.18.09.18.09.27.05.1-2.61.52v.12l-.35-.21-.35-.27-.44-.09-.35-.09-.53-.09-.3-.07Zm-16.05-11.69l.44.35.53.62.53.62.71.62.53.44.44.35.18.18.97,1.06.09.09.09.18.44.44.27.53.27.62-.71-.71-.53-.53-.44-.44-.27-.35-1.24-.71-1.24-.44-.62-.53-.44-.35-.35-.35-.18-.09-1.33-.71-.18-.09-.35-.18-.71-.35-.8-.44-.97-.53-1.15-.53-2.39-1.24-.53-.09-.44-.09-.35-.09-.18-.18-.97-.44-.8-.44-.53-.35-.09-.09h-.09l-1.86-1.33h-.09l-.18-.18-.27-.09-.35-.18-.71-.35-.27-.09-.18-.09.18.18.27.27.62.44.44.35.18.18h.09l3.89,2.47,1.59.62.53.27.44.18.62.27.71.35.27.18.18.09.18.18.18.09.27.18.44.27.71.44,2.74,1.33.8.53.27.27.18.27-.18.09-.27.18h-.44l-.53-.09-.44-.09-.44-.18-1.15-.44-1.33-.53-1.41-.71-.18-.09-.44-.18-.62-.35-.88-.44-.97-.62-1.15-.53-2.21-1.33-.62-.44-.62-.35-.88-.62-.71-.53-.62-.53-.53-.53-.27-.44-.18-.35-.18-.27-.18.18.09.35.18.27.18.27.71.71.88.8,3.09,2.3,5.57,3,1.5.8,1.59.88.8.44.97.44,1.15.62,1.24.62.88.44,1.06.53.97.53.97.44.88.44.8.35.44.27.18.09,2.12,1.24.71-.62.09-.62-1.59-1.33-.09-.09-.18-.27-.18-.44-.27-.44-.62-.62-.44-.62-.35-.35-.18-.18-3.8-3.27-.09-.09-.35-.27-.53-.44-.53-.44-.62-.44-.53-.44-.44-.27-.27-.18h-.09v.09l.09.35.35.27.44.35.97.71.18.18Zm-12.99-6.36l7.51,4.68.09-.27-3.89-2.47-3.54-2.03-.18.09Zm53.47,19.44l9.01,2.92v-.27l-3.09-1.15-5.74-1.77-.18.27Zm-26.78,12.46h-.18l-.27.09h-.27l-.27.09-.27.35-.09.27-.09.35v.53l.09.53.18.62.18.44.27.35.44.27.35.18.35.18.71.09.35-.09h.18l.27-.09.09-.09h.09l.09-.09.35-.44.18-.35.09-.27.09-.27-.18-.53-.09-.27-.18-.35-.44-.44-.53-.35-.09-.09-.27-.18-.35-.27-.35-.09-.44-.09Zm-2.03.18l-.27.18-.27.27-.27.35-.09.8v.62l.09.44.09.53.27.44.35.35.27.35.27.27.18.09.18.09h.18l.18.09.53-.09.35-.09.27-.09.18-.09h.09l-.09-.09h-.09l-.27-.09-.44.09h-.44l-.18-.09-.09-.09-.18-.09v-.09l-.18-.18-.27-.35-.09-.35-.18-.18v-.09l-.09-.71-.09-.62v-.53l.09-.53.35-.44.18-.09v-.18l-.09-.09-.44.27Zm4.15-3.45l.09.27.09.35v.8l-.09.53-.09.44v.18h.09l.18-.09.18-.27.18-.35v-1.15l-.09-.27-.27-.27-.18-.18-.09-.09v.09Zm-1.86-.35h-.18l-.44.09-.18.09h-.09l-.09.09-.18.09-.27.44-.18.35-.09.27v.09l-.09.71.18.35.09.18.09-.09v-1.15l.18-.35.44-.35.35-.35.35-.18.09-.09v-.18Zm4.86-8.57v.88l.18.53.09.44.09.27.09.27v.97l-.09.27v.27l-.18.62-.27.53.09.71v.44l.09.27.18.18.18.18.18-.09h.18l.09-.09.18-.09.53-.88.53-.8.27-.53.18-.44.18-.53v-.44l-.09-.88-.62-1.06-.35-.35-.35-.35-.53-.27-.62-.27-.18.27Zm-9.19-5.57v.18l.62-.27.44-.27.35-.09.44-.18.62-.18.62-.09.97-.09.71.09h.44l.44.09.53.09,1.59.8,1.33.88.97.71.44.27.27.18-.18-.71-.44-.35-.62-.44-.71-.44-.62-.35-.8-.35-.53-.27-1.06-.35h-.18l-.35-.09-.62-.09-.62-.09h-.27l-.27.09h-.71l-.27.09-.35.09-.62.27-.44.27-.44.27-.35.18-.35.18Zm5.92,8.75l-.09.09-.18.18-.09.27.18.44.18.35.35.44.27.8.18.62.18.44.09.35.35.18.27.09h.27l.27-.09.18-.09.27-.18v-.8l-.09-.62-.09-.53-.09-.44-.27-.71-.18-.35-.27-.18-.35-.18-.27-.09h-1.06Zm-1.41-.27h-.62l-.88.27-.53.8-.44.71-.27.62-.18.53.09.44.09.35.27.53.27.18.18-.09.27-.27.18-.18.27-.44.18-.44.27-.53.53-.53.35-.44.27-.35.09-.18v-.71l-.18-.18-.18-.09Zm2.65-3.09v.09l.53.44.44.44.27.27.09.09.27.35.09.27.27.62.09.09.09-.09v-.09l-.09-.27-.09-.44-.18-.53-.44-.53-.18-.18-.09-.09-.09-.09-.27-.18-.35-.18-.35-.09v.09Zm-3.62-.18l-.27.27-.35.18-.44.44-.35.53-.27.44-.44.71.09.09.27-.27.27-.35.35-.44.44-.53.27-.27.27-.18.35-.27.44-.35v-.09l-.18-.09-.44.18Zm.35-1.77l.18.09,1.59-2.47-.27-.09-1.5,2.47Zm-4.07,1.59l-.27.27-.44.35-.27.35-.27.44-.09.35-.09.27-.09.35-.09.71v.71l.18.62.18.44.18.35.18.35,1.41,1.41.18.09.09-.18.09-.18.09-.35.09-.35.09-.44v-.35l.09-.53.09-.62.09-.62v-.8l.09-.53v-.53l.09-.62.09-.44.09-.27.09-.27v-.53h-.53l-.44.09-.57.29-1.86-.53.14-.47.09-.62v-.41s.97,1.29.97,1.29l.27-.18-1.32-1.55-.1-.48-.18-.27-.18-.18-.27-.27-.53-.27-.18-.09-.35-.09-.53-.27-.62-.27-.71-.27-.62-.27-.53-.27-.44-.18-.71-.35-.8-.35-.97-.53-1.06-.53-1.15-.53-1.24-.53-1.24-.53-1.15-.62h-.09l-.27-.18-.35-.18-.44-.27-.62-.35-.62-.35-1.41-.88-2.03-1.33-2.12-1.5-.97-.71-.88-.71-.88-.71-.62-.62-.53-.53-.35-.44-.27-.44-.09-.35.18-.27.09-.18.18-.18.27-.27.71.09.8.09.8.18.8.18h.97l.97-.09.8-.09h1.06l.27.09h.44l.97.09,1.15.09.44.18.62.18.8.27.88.27.97.35,1.06.27,2.47.71h.71l.35-.09.97.35,1.24.35,1.33.62,1.41.88.8.71.53.62.35.44.09.18.27.53.18.62.09.53-.09.62-.35.88-.35.62-.35.53-.27.44-.09.44.09.27.09.27.18.09.35-.09.35-.18.27-.18.27-.18.35-.27.27-.35.35-.35.44-.27.71-.27.88-.18.88-.09.75-.09-.05.17-.27.71-.44.8-.44.62-.35.53-.35.35-.09.09.27.09.09-.09.27-.27.27-.35.35-.35.18-.18.18-.18.18-.35.18-.71.18-.62.15-.34.38-.1.44-.09.53-.09.26-.06.18.24.18.27-.44.62-.62.88-.44.8-.35.53-.18.09v.09l.27.18.09-.09.18-.27.27-.35.35-.53.44-.62.44-.71.19-.28.25.37.27.35.18.27.18.18v.09l.18-.09v-.09l-.09-.09-.35-.53-.41-.74.26-.38.68.32.9.45.96,3.97.18-.09-.93-3.78.84.51.8.53.71.44.32.28.35,1.96-.41,1.22h.27l.23-.69.3,1.66.27-.09-.41-2.06.31-.93v.42s.1.27.1.27v.18l.09.35v.27l.09.35-.09.35-.09.27v.18l.09.18.09.18.18.09.27.09.44.09h.97l.8-.09.53-.09.62-.18.62-.44.53-.53.44-.53.27-.53v-.97l.09-.27v-.18l.18-.35.35-.27.8-.53.44-.18.53-.18.53-.18.71-.09.88.27.97.35.88.44.97.44.88.53.71.53.44.35.18.18.88,1.06.8.97.62.44.35.18.53.27h.53l.27-.09h.35l.53.09.71.18.8.18.97.44.62.35.71.35,1.5.88.8.44.71.53.62.44.53.53.35.35.18.35.27.53.18.44.18.53.35.35.27.35.18.18.09.09.09.27v.18l.09.27v.35l-.18.62-.27.44-.27.35-.53.44-.71.35-.8.44-1.06.27h-.62l-.71-.09-.71-.18-.62-.18-.35-.09-.18-.09-.8-.27-.97-.35-.53-.18-.62-.35-.8-.44-.97-.53h-.09l-.18-.18-.35-.18-.44-.35-.53-.35-.71-.35-.71-.53-.8-.53-1.86-1.15-2.12-1.33-2.21-1.5-2.21-1.5-.53.18-.35.18-.35.09-.44.09-.71.18-.88.09-.8.09h-.62l-.35-.09-.18-.09.06.03.12.59v.44l-.09.09h-.18l-.44-.18-.18.35-.18.44-.27.53-.18.35.18.35.18.35.09.27.09.27.09.35v.27l-.09.44v.27l-.09.35-.09.35-.27.53-.35.71-.53.8-.71.88-.8,1.06-.97,1.15-.97,1.33-.27.35-.18.44-.18.44-.09.35v.27l.18.27.35.35.35.09h.27l.44.09.18.09.27.27.09.18v.18l-.09.18-.27.09-.35.09-.53.09-.27-.09-.09-.18-.18-.09v-.09l.09.09.09.27.18.62-.18.44-.18.35-.27.35-.44.35-.62.18-.62.27-.71.27-.44.09-.53.09-.62-.27-.53-.44-.44-.53-.35-.53-.09-.8-.09-.71v-.62l.09-.44.44-.35.44-.35.35-.35.18-.53-.18-.35-.09-.35-.18-.18-.09-.35-.18-.35-.18-.62-.27-.53-.18-.35-.35-.62-.27-.53-.35-.71-.8-.8-.62-.62-.35-.71-.27-.71-.09-.53v-.44l.09-.44v-.35l-.18-.35-.27-.27-.18-.27-.09-.18.09-.44.18-.35.18-.62.25-.42,1.69.46" />
          </g>
          <g id="g3189">
            <path id="path3191" class="cls-3"
              d="m71.32,86.7l.35,1.5-1.33.8,1.5.09.35,1.5.62-1.41,1.5.18-1.15-.97.62-1.41-1.33.71-1.15-.97Z" />
          </g>
          <g id="g3193">
            <path id="path3195" class="cls-3"
              d="m79.98,80.07l.71,1.33-1.06,1.15,1.5-.27.71,1.33.27-1.5,1.5-.27-1.41-.71.27-1.5-1.06,1.15-1.41-.71Z" />
          </g>
          <g id="g3197">
            <path id="path3199" class="cls-3"
              d="m86.7,71.32l.97,1.15-.8,1.33,1.5-.62.97,1.15-.18-1.5,1.41-.62-1.5-.35-.09-1.5-.8,1.33-1.5-.35Z" />
          </g>
          <g id="g3201">
            <path id="path3203" class="cls-3"
              d="m90.94,61.51l1.24.8-.35,1.5,1.15-.97,1.33.8-.53-1.41,1.15-.97-1.5.09-.62-1.5-.35,1.59-1.5.09Z" />
          </g>
          <g id="g3205">
            <path id="path3207" class="cls-3"
              d="m29.52,86.7l-.35,1.5,1.33.8-1.5.09-.35,1.5-.62-1.41-1.5.18,1.15-.97-.62-1.41,1.33.71,1.15-.97Z" />
          </g>
          <g id="g3209">
            <path id="path3211" class="cls-3"
              d="m20.77,80.16l-.71,1.33,1.06,1.15-1.5-.27-.71,1.33-.27-1.5-1.5-.27,1.41-.71-.27-1.5,1.06,1.15,1.41-.71Z" />
          </g>
          <g id="g3213">
            <path id="path3215" class="cls-3"
              d="m13.88,71.59l-.97,1.15.71,1.33-1.41-.62-.97,1.15.09-1.5-1.33-.71,1.5-.27.18-1.5.71,1.33,1.5-.35Z" />
          </g>
          <g id="g3217">
            <path id="path3219" class="cls-3"
              d="m9.81,61.42l-1.24.8.35,1.5-1.15-.97-1.33.8.53-1.41-1.15-.97,1.5.09.62-1.5.35,1.59,1.5.09Z" />
          </g>
          <g id="g3221">
            <path id="path3223" class="cls-3"
              d="m8.48,50.29l-1.41.44v1.59l-.97-1.24-1.41.44.88-1.24-.88-1.24,1.41.44.97-1.24v1.59l1.41.44Z" />
          </g>
          <g id="g3225">
            <path id="path3227" class="cls-3"
              d="m92.36,50.29l1.41-.44v-1.59l.97,1.24,1.41-.44-.88,1.24.88,1.24-1.41-.44-.97,1.24v-1.59l-1.41-.44Z" />
          </g>
          <g id="g3229">
            <path id="path3231" class="cls-3"
              d="m6.98,45.34l.09-.62.09-.71-.88.18-.97.27.88.44.8.44Zm.44-1.41l-.09.8-.09.71.18.18.27.09.35.18.18.09h.09v-.09h.09v-.18l.09-.18h.18l-.09.27v.62l-.09.35h-.18v-.35h-.09l-.09-.09-.44-.27-.44-.27-.88-.44-.88-.53-.62-.27-.35-.27v-.18l1.86-.44,1.86-.35.27-.09.18-.09h.09v-.09l.09-.09v-.09h.18v.35l-.09.27-.09.35v.44h-.09l-.09-.09v-.44h-.35l-.44.09-.44.09Z" />
          </g>
          <g id="g3233">
            <path id="path3235" class="cls-3"
              d="m9.01,41.63l.09-.27v-.27l.09-.35.09-.35v-.44l-.35-.18-.27-.18v-.09l.53.18.44.18v.27l-.09.35-.09.62-.18.53-.09.35-.09.44-.09-.09-.09-.09-.09-.18h-.09l-.27-.09-.62-.09-.8-.18-.8-.18-.35-.09h-.35l-.18-.09h-.09l-.09.09-.09.18v.27h-.18l.09-.53v-.27l.09-.09.09-.35v-.44h.18v.53l.27.18.44.09.97.18.88.18.44.09.44.09h.09l.09.09Z" />
          </g>
          <g id="g3237">
            <path id="path3239" class="cls-3"
              d="m5.83,38.44h-.18l.18-.44.09-.35.09-.35.09-.44h.09l.09.09v.18l-.09.18.09.18.27.09.27.09.35.09.62.18.53.18.53.09.35.09.27-.09.27-.09.18-.27.18-.35.09-.35-.09-.35-.09-.27-.18-.18-.35-.18-.53-.27-.53-.18-.53-.18-.35-.09-.27-.09-.27-.09-.09.09-.18.27v.09h-.18l.09-.27.09-.18.09-.27.09-.27.09-.35h.09l.09.09v.09l-.09.09v.27l.27.18.27.09.35.09.53.18.53.18.62.27.18.09.09.09.27.18.18.18.09.27.09.35-.09.35-.09.27-.09.35-.18.35-.18.18-.27.18-.18.09h-.27l-.27-.09-.53-.09h-.27l-.27-.09-.44-.09-.44-.18-.35-.09-.27-.09-.27-.09-.09.09-.09.18v.09l-.09.09Z" />
          </g>
          <g id="g3241">
            <path id="path3243" class="cls-3"
              d="m9.28,30.58l.71.8.62.71.71.8.62.62v.09h-2.65l-1.24.09,2.12.8.35.09.27.18h.27l.18-.09.09-.18v-.09l.09.09h.09l-.09.35-.18.18-.09.27-.09.35h-.09l-.09-.09v-.09l.09-.09v-.18l-.09-.09-.09-.09-.35-.18-.44-.18-.8-.27-.8-.35-.27-.09h-.27l-.27-.18h-.18l-.09.18-.09.09v.18h-.09l-.09-.09.18-.35.09-.18.09-.18v-.27h.97l.97-.09h1.77l-.53-.53-.53-.62-.71-.71-.71-.88.18-.27.09-.18.09-.18.18-.35.09.09h.09l-.09.09v.09l-.09.18v.09l.18.18.35.18,1.06.53.97.44.27.18.27.09.18.09.18-.09.09-.18.09-.09.09.09h.09l-.18.35-.18.27-.18.35-.18.35-.09-.09h-.09l.09-.09v-.09l.09-.18-.09-.09-.09-.09-.09-.09-.53-.27-1.15-.53-1.06-.53Z" />
          </g>
          <g id="g3245">
            <path id="path3247" class="cls-3"
              d="m10.25,28.72l.97.53.88.44.53.27.18.09.09.09.18.09h.09l.09-.09.09-.09.09-.09v-.09l.09.09h.09l-.09.27-.18.18-.09.27-.18.44-.09-.09h-.09v-.09l.09-.09v-.27l-.09-.09-.35-.18-.44-.27-.62-.35-.71-.35-.35-.18-.35-.27h-.09l-.18-.09-.09.09h-.09v.09l-.09.09v.09l-.09.09-.09-.09h-.09l.18-.35.09-.18.09-.18.09-.18.44-.09.44-.09h.44l.44-.09.8-.09.71-.09h.8l.44-.09-.88-.53-.8-.44-.44-.27-.35-.27-.27-.09-.09-.09-.09.09-.18.09-.09.09v.09h-.09l-.09-.09.18-.35.18-.18.18-.27.18-.35.09.09h.09l-.09.09v.09l-.18.18.09.18.09.09.27.18.35.18.44.27.53.35.62.35.44.35.62.35-.18.18-.09.09-.09.09h-.53l-.53.09-1.59.18-1.68.18Z" />
          </g>
          <g id="g3249">
            <path id="path3251" class="cls-3"
              d="m15.11,27.13h.09v-.09l.09-.18v-.18l-.09-.09-.27-.09-.27-.27-.44-.27-.35-.27-.44-.35-.44-.27-.35-.18-.27-.18-.09-.09-.09.09-.18.09v.09l-.09.09h-.09l-.09-.09.27-.35.27-.35.18-.35.18-.27.09.09h.09v.09l-.09.09-.09.18-.09.09.09.09.09.09.35.27.62.44.8.53.44.27.35.27.27.09.09.09h.18l.09-.18.09-.09h.09v.09l-.18.27-.18.27-.27.35-.18.35-.09-.09-.09-.09Z" />
          </g>
          <g id="g3253">
            <path id="path3255" class="cls-3"
              d="m17.41,23.77l.27-.18.18-.27.27-.27.09-.27.09-.62-.27-.62-.53-.71-.35-.27-.27-.18-.71-.18-.53.27-.35.18-.27.27-.18.27-.18.35.18.18.27.27.8.62.71.53.44.35.35.27Zm-.27.44l-.53-.35-.8-.62-.27-.27-.35-.27-.35-.35-.44-.27h-.09l-.09-.09-.09.09-.18.09v.09h-.18l-.09-.09.27-.27.09-.18.27-.35.27-.27.18-.27.18-.27.53-.53.44-.18.35-.09h.44l.35.09.35.18.35.27.35.35.27.35.09.44.09.44v.44l-.09.35-.35.8-.27.27-.18.27-.18.18-.09.18-.18.27-.09-.09h-.09v-.18l.09-.18Z" />
          </g>
          <g id="g3257">
            <path id="path3259" class="cls-3"
              d="m19,19.53l.27.27.27.18.18.18.09.18.27.18.18.18.27-.27.35-.27.18-.18.09-.18.09-.09.09-.18-.18-.27-.18-.27.09-.09v-.09l.35.44.18.27.09.09h.09l-.18.27-.27.18-.27.27-.44.44-.27.27-.27.27-.27.35-.09-.09-.09-.09.09-.09.09-.09v-.18l-.09-.18-.18-.18-.44-.35-.53-.62-.62-.53-.27-.27-.18-.18-.18-.09-.09-.09h-.18l-.18.09-.09.09-.09.09v-.09l-.09-.09.09-.09.09-.09.27-.27.27-.27.35-.35.35-.35.27-.18.18-.18.18-.18.18-.18.18.35.35.35v.09l-.09.09-.27-.27-.18-.18-.27.18-.35.35-.35.27-.27.27.27.27.18.18.18.18.09.18.27.18.18.18.18-.09.18-.18.44-.44.09-.18-.09-.09-.09-.18-.09-.09.09-.09v-.09l.27.35.27.18.18.27.27.27-.09.09h-.09l-.09-.09-.18-.18h-.09l-.18.09-.18.18-.27.18-.09.18-.18.18Z" />
          </g>
          <g id="g3261">
            <path id="path3263" class="cls-3"
              d="m21.21,14.76l.18.35.27.35-.09.09h-.09v-.09l-.09-.09-.18-.09-.09-.09h-.35l-.27.18-.18.09-.27.35-.18.35.09.35.18.27.18.18.18.09h.35l.27-.18.35-.27.44-.27.27-.09h.27l.18.09.27.09.18.18.27.53v.62l-.18.53-.18.27-.27.27-.18.18-.18.09-.27.09-.27.09-.18-.35-.35-.35h.09v-.09l.09.09.18.18.09.09h.44l.18-.09.18-.09.18-.09.27-.35.09-.35v-.35l-.18-.35-.18-.09-.18-.18h-.35l-.27.09-.27.18-.44.35-.35.09-.18.09-.27-.09-.27-.18-.27-.18-.27-.44-.09-.53.18-.53.44-.44.27-.18.18-.18.35-.09.27-.09Z" />
          </g>
          <g id="g3265">
            <path id="path3267" class="cls-3"
              d="m24.75,14.49l.18.35.27.35.18.18.09.18.18.27.18.09v.09h.18l.09-.09.09-.09.09-.09.09.09v.09l-.27.18-.27.18-.35.27-.35.27-.09-.09.09-.09v-.09l.18-.09.09-.18-.18-.27-.44-.53-.53-.71-.53-.71-.35-.53-.09-.09-.09-.09h-.18l-.18.09v.09l-.09.09-.09-.09-.09-.09.35-.27.35-.27.35-.18.27-.27.09.09.09.09h-.09l-.18.18-.09.09v.18l.18.18.27.44.27.27.18.27.44-.27.53-.35.44-.35.44-.27-.18-.27-.18-.18-.27-.44-.18-.27-.09-.09-.09-.09-.09.09-.18.09h-.09l-.09.09v-.09l-.09-.09.35-.18.35-.27.35-.18.35-.27.09.09v.09h-.09l-.09.09-.09.09-.09.09v.18l.18.27.27.44.44.71.44.71.27.35.18.27.18.27h.09l.18-.09h.09l.09-.09.09.09v.09l-.27.18-.35.18-.35.27-.35.18v-.09l-.09-.09h.09l.09-.09.09-.09.09-.09v-.09l-.09-.09-.18-.35-.27-.44-.18-.27-.18-.35-.44.18-.44.35-.62.35-.35.35Z" />
          </g>
          <g id="g3269">
            <path id="path3271" class="cls-3"
              d="m28.63,12.11l.18.27.18.35.18.18.09.18.27.53.35-.18.35-.27.27-.09.18-.18.09-.09.09-.09-.09-.27-.09-.35h.09l.09-.09.18.53.18.27v.18l-.18.18-.27.09-.18.09-.18.09-.53.27-.35.18-.35.18-.35.27v-.09l-.09-.09h.09l.09-.09.09-.09v-.27l-.18-.27-.27-.44-.35-.71-.44-.71-.18-.35-.18-.27-.09-.09-.09-.18h-.18l-.18.09-.09.09h-.09l-.09-.09v-.09l.18-.09.09-.09h.18l.09-.09.18-.09.09-.09.53-.27.44-.27.27-.09.18-.18.53-.27.09.44.18.44-.09.09h-.09l-.09-.27-.18-.18-.35.09-.44.18-.27.18-.35.27.18.18.09.27.09.27.09.18.18.27.18.27.18-.09.18-.18.27-.09.18-.18.18-.09v-.35l-.09-.09v-.09h.09v-.09l.18.35.18.35.18.27.18.27-.09.09h-.09v-.09l-.09-.09-.27-.27-.18.09-.44.27-.18.18-.27.09Z" />
          </g>
          <g id="g3273">
            <path id="path3275" class="cls-3"
              d="m31.55,12.64h.09v-.09l.18-.09v-.27l-.09-.27-.18-.35-.18-.44-.27-.44-.18-.44-.27-.53-.18-.35-.09-.27-.09-.09h-.18l-.18.09h-.09l-.09.09v-.09l-.09-.09.44-.18.44-.27.35-.09.27-.18v.18h-.09l-.09.09-.09.09-.09.09v.09l.09.09.09.44.35.62.27.53.18.44.27.44.18.35.09.27v.09h.18l.18-.09h.18v.09l.09.09-.35.09-.35.18-.35.18-.35.18v-.18Z" />
          </g>
          <g id="g3277">
            <path id="path3279" class="cls-3"
              d="m33.94,11.31l.35-.09.27-.09.62-.35.18-.18.09-.27.18-.71-.18-.88-.44-.62-.44-.44-.62-.09-.8.09-.27.18-.35.18.18.27.09.35.44.88.35.88.18.44.18.44Zm-.44.27l-.09-.27-.18-.35-.35-.88-.18-.35-.18-.44-.18-.44-.27-.35-.09-.18v-.09h-.09l-.18.09h-.27v-.18l.35-.09.18-.09.35-.18.35-.18.27-.09.27-.09.8-.27h.44l.35.09.35.18.27.27.27.35.18.44.18.44v.44l-.18.88-.18.35-.27.35-.8.44-.09.09h-.18l-.35.18-.18.09-.27.09-.27.09v-.09l.09-.09.09-.18Z" />
          </g>
          <g id="g3281">
            <path id="path3283" class="cls-3"
              d="m37.38,8.31l.09.35.09.35.09.18.09.18.09.35.09.27.35-.09.35-.18h.27l.27-.09.09-.09.09-.09v-.71h.18l.09.53.09.35v.09l-.27.09-.27.09-.18.09h-.27l-.53.18-.35.09-.35.18-.44.09v-.09l-.09-.09h.09l.18-.09.09-.09v-.27l-.09-.27-.18-.53-.18-.71-.27-.8-.09-.35-.18-.27v-.18l-.09-.09v-.09h-.35l-.09.09h-.09l-.09-.09v-.09h.18l.09-.09.18-.09h.18l.18-.09h.18l.53-.18.44-.18.27-.09.27-.09h.27l.27-.09v.44l.09.44-.09.09h-.09l-.09-.27-.09-.27h-.35l-.44.09-.8.27.09.27.09.27.09.27.09.18.09.35.09.27.27-.09.18-.09.27-.09h.27l.18-.09v-.35l-.09-.09v-.09h.09l.09-.09.09.44.09.27.09.35.09.27-.09.09h-.09v-.18l-.09-.18-.09-.09h-.27l-.44.09-.27.09-.18.09Z" />
          </g>
          <g id="g3285">
            <path id="path3287" class="cls-3"
              d="m41.01,9.1h.18l.27-.09.44-.09.27-.09.27-.09.18-.09v-.71h.18v.53l.09.53-.27.09-.35.09-.62.09-.62.09-.27.09-.44.18v-.09l-.09-.09.18-.09.09-.18v-.09l-.09-.27-.18-.62-.18-.8-.18-.8-.09-.62-.09-.27-.09-.09h-.35l-.18.09v-.09l-.09-.09.62-.09.18-.09.09-.09.35-.09.44-.09v.18l-.09.09h-.18l-.09.09-.09.09v.18l.09.53.27.97.18.88.09.44.09.35v.09l.09.09Z" />
          </g>
          <g id="g3289">
            <path id="path3291" class="cls-3"
              d="m44.1,8.48h.44l.35-.09.27-.27.18-.35v-.44l-.09-.27-.09-.27-.18-.09-.18-.18h-.62l-.18.09h-.18l.09.53.09.53v.18l.09.18v.44Zm-.27-2.12h.27l.44-.18.27-.18.09-.27.09-.35-.09-.27-.18-.27-.27-.09h-.44l-.18.09h-.18v.44l.09.71v.18l.09.18Zm.88,0h.53l.35.18.18.27.18.35-.09.62-.27.44-.44.35-.53.18h-.18l-.27.09h-.35l-.18.09h-.18v-.09l.09-.09v-.09l.09-.09-.09-.09v-.35l-.09-.44-.27-1.86-.09-.53-.09-.18v-.09l-.18-.09h-.35v-.18h.35l.09-.09h.62l.44-.09.18-.09h.62l.35.09.27.27.09.35v.35l-.18.27-.27.27-.35.27Z" />
          </g>
          <g id="g3293">
            <path id="path3295" class="cls-3"
              d="m47.28,6.45v.71l.09.27v.8h.44l.44-.09h.62l.09-.09.09-.35v-.35h.18v1.06h-.97l-.62.09h-.71l-.44.09v-.09l-.09-.09h.09l.18-.09h.09l.09-.09v-.97l-.09-.88-.09-.8v-.35l-.09-.27v-.35h-.09v-.09h-.44l-.09-.09v-.09h.62l.18-.09h.8l.53-.09h1.06l-.09.44v.53h-.27v-.62h-.35l-.44-.09-.44.09h-.44l.09.35v.97l.09.35h.44l.53-.09h.18l.09-.18v-.35h.18v1.06l.09.35h-.18v-.18l-.09-.27-.09-.09-.18-.09h-.53l-.18.09h-.27Z" />
          </g>
          <g id="g3297">
            <path id="path3299" class="cls-3"
              d="m51.52,6.27l.35.44.27.53.53.8.09.09.09.09h.09v.27l-.18-.09h-.44l-.44-.71-.44-.71-.27-.35-.35-.44.09-.09h.18l.44-.09.27-.18.18-.27.18-.35-.09-.35-.18-.27-.27-.18-.35-.09h-.27l-.35.09v3.62l.09.09.18.09h.27v.18h-.44l-.27-.09h-.09l-.35.09h-.44v-.18h.27l.18-.09.09-.09v-3.54l-.09-.09-.09-.09h-.35v-.18h2.3l.35.09.18.18.18.18.09.27v.27l-.09.35-.18.35-.35.27-.53.18Z" />
          </g>
          <g id="g3301">
            <path id="path3303" class="cls-3"
              d="m56.83,7.42v.27l-.09.27v.62l-.44.09h-.44l-.35.09-.44-.09-.53-.09-.53-.27-.35-.35-.27-.44-.18-.53v-.62l.09-.62.27-.53.35-.35.53-.35.62-.18h.71l.35.09.27.09.27.09.35.18.18.09h.09l-.09.35-.18.53h-.09l-.09-.09v-.18l.09-.18-.09-.18-.09-.09-.27-.18-.8-.27-.71.09-.62.27-.44.62-.18.71.09.71.27.71.44.53.71.27h.53l.44-.09.09-.27v-.8h-.09l-.18-.09h-.09l-.18-.09v-.18l.53.09.35.09h.44v.18l-.09.09h-.18Z" />
          </g>
          <g id="g3305">
            <path id="path3307" class="cls-3"
              d="m58.51,7.07v.35l-.09.35-.09.27v.18l-.09.35v.27l.35.09.44.09h.71l.18-.27.09-.35.09.09h.09l-.09.53-.18.27v.18l-.27-.09h-.35l-.18-.09h-.18l-.62-.18-.35-.09h-.35l-.44-.09v-.18h.44l.09-.09v-.18l.09-.27.09-.53.27-1.59.09-.35v-.71h-.09l-.18-.09h-.09l-.09-.09v-.18l.18.09h.27l.18.09h.18l.18.09.53.09.53.09.27.09h.27l.27.09h.27l-.18.44-.18.44h-.18l.09-.35v-.18l-.35-.18-.44-.18h-.35l-.44-.09v.27l-.09.27v.27l-.09.18v.35l-.09.27.27.09h.18l.27.09h.44l.09-.09.09-.18v-.18h.09l.09.09-.09.35-.09.27v.35l-.09.35h-.09l-.09-.09v-.18l.09-.18-.09-.18-.18-.09h-.27l-.27-.09h-.18l-.27-.09Z" />
          </g>
          <g id="g3309">
            <path id="path3311" class="cls-3"
              d="m62.75,7.95l.09.53.18.62.18.44.09.44.09.09v.09l.09.09h.09v.09l-.09.09h-.18l-.18-.09-.09-.09h-.18l-.27-.8-.18-.8-.18-.44-.18-.53v-.09l.18.09h.09l.35.09.35-.09.35-.27.09-.35.09-.35-.09-.27-.18-.27-.35-.18h-.62l-.18.44-.18.53-.18.71-.18.71-.09.44-.09.35-.09.27v.09l.09.09.18.09h.18v.18l-.35-.09-.35-.09-.35-.09-.44-.09.09-.09v-.09h.18l.18.09.09-.09.09-.09.09-.27.09-.35.09-.44.18-.71.18-.71.18-.62v-.35l-.09-.09-.18-.09h-.09l-.09-.09v-.09l.09-.09.35.18.35.09.27.09h.27l.35.09.27.09.35.18.27.09.18.27.09.18.09.27-.09.27-.18.35-.27.27-.44.18h-.44Z" />
          </g>
          <g id="g3313">
            <path id="path3315" class="cls-3"
              d="m65.93,11.05l.27.09.18.09.44.18.27.09.27.09h.18l.18-.27.27-.27h.09l-.27.53-.18.44-.27-.09-.35-.18-.53-.18-.62-.27-.27-.09-.44-.18v-.18h.18l.18-.09.18-.27.09-.27.09-.35.35-.8.27-.71.09-.35.09-.35.09-.18v-.18l-.18-.09h-.09l-.18-.09.09-.09v-.09l.53.18.27.18.35.09.44.18-.09.09v.09l-.18-.09-.18-.09h-.18l-.18.27-.09.18-.09.27-.35.88-.35.88-.27.8v.09l-.09.09Z" />
          </g>
          <g id="g3317">
            <path id="path3319" class="cls-3"
              d="m67.96,12.02h.09l.09.09h.27l.09-.09.09-.27.18-.35.27-.44.27-.44.18-.53.27-.44.18-.35.09-.27v-.09l-.09-.09-.09-.18h-.09l-.18-.09.09-.09v-.09l.44.27.44.18.35.18.27.09-.09.09v.09h-.09l-.09-.09-.18-.09h-.09l-.09.09-.09.18-.18.35-.18.27-.18.35-.18.44-.27.44-.27.44-.09.44-.18.27v.09l.09.09.09.09.09.09h.09v.09l-.09.09-.27-.18-.35-.18-.35-.09-.35-.18.09-.09v-.09Z" />
          </g>
          <g id="g3321">
            <path id="path3323" class="cls-3"
              d="m71.32,11.58l-.27.53-.27.44-.18.44-.09.18.09.18.09.09h.09l.09.09v.09l-.09.09-.35-.27-.35-.18-.27-.18-.35-.18v-.09l.09-.09.09.09.09.09h.27l.18-.18.18-.44.53-.97.53-1.06.18-.44.09-.18-.09-.09-.18-.18h-.09l-.09-.09.09-.09v-.09l.44.27.35.18.71.44.71.35.27.18.18.09-.27.27-.35.44-.09-.09.09-.27.09-.27-.27-.27-.35-.18-.27-.18-.35-.18-.18.35-.18.27-.18.44-.27.44.18.09.09.09.35.18.27.09.09.09h.09l.09-.09.09-.09.09-.09v-.09h.09l.09.09-.18.35-.18.18-.18.35-.18.27h-.09l-.09-.09.09-.09.09-.09.09-.18v-.18l-.18-.18-.44-.18-.18-.09-.18-.18Z" />
          </g>
          <g id="g3325">
            <path id="path3327" class="cls-3"
              d="m73.97,13.17l-.18.35-.18.27-.09.18-.18.18-.18.35-.09.18.35.27.27.18.27.18.18.09.18.09h.09l.27-.18.18-.27.09.09h.09l-.35.44-.18.27-.09.09-.27-.18-.27-.18-.09-.09-.18-.09-.53-.35-.35-.18-.27-.18-.35-.27v-.09l.09-.09v.09l.18.09h.18l.09-.09.09-.09.18-.27.27-.44.44-.71.44-.71.27-.53.09-.18.09-.09v-.09l-.09-.09-.09-.09-.09-.09-.09-.09v-.09l.09-.09.18.09.09.09.09.09.09.09.18.18.18.09.53.27.44.27.18.18.18.09.27.18.18.18-.27.27-.35.44-.09-.09-.09-.09.18-.18.18-.27-.27-.27-.35-.27-.35-.18-.35-.27-.18.27-.18.18-.09.27-.09.18-.18.27-.18.27.18.18.18.09.44.27.27.09.09-.09.09-.18h.09v-.09h.09l.09.09-.18.35-.27.18-.18.27-.18.35v-.09h-.09v-.09l.09-.09.09-.18v-.18l-.09-.18-.44-.27-.18-.09-.27-.18Z" />
          </g>
          <g id="g3329">
            <path id="path3331" class="cls-3"
              d="m75.56,15.02l.18-.18.35.18.18.18.27.18.35.27v.09l-.18.18-.18.09-.27-.18-.27-.27-.27-.18-.35-.27" />
          </g>
          <g id="g3333">
            <path id="path3335" class="cls-3"
              d="m80.6,15.64l-.27.18-.35.35h-.09l-.09-.09.09-.09.09-.09.09-.18.09-.18-.09-.09-.09-.18-.09-.27-.18-.18-.35-.18-.35-.09-.35.09-.27.27-.09.18-.09.18v.18l.09.18.09.27.35.35.35.35.18.27v.44l-.09.18-.18.27-.44.35-.53.09h-.62l-.62-.35-.18-.18-.18-.18-.09-.18-.18-.27.27-.35.35-.35.09.09h.09l-.09.09h-.09l-.09.18-.09.18v.18l.09.18.09.18.27.27.44.27.35.09.35-.18.27-.18.09-.18.09-.18v-.35l-.18-.27-.27-.27-.35-.35-.18-.27-.09-.27v-.27l.27-.53.44-.35.44-.18.62.09.53.35.18.18.18.27.18.27.18.27Z" />
          </g>
          <g id="g3337">
            <path id="path3339" class="cls-3"
              d="m82.81,18.91l.18-.18.18-.18-.09-.27-.09-.27-.18-.27-.18-.27-.62-.35-.27-.09h-.35l-.35.09-.27.09-.53.44-.35.44-.18.53-.09.44v.44l.18.44.27.35.27.27.27.18.27.09.35.09h-.09l-.09.09-.18.09-.53-.27-.27-.18-.27-.18-.44-.44-.18-.53-.09-.53.09-.62.18-.53.35-.44.44-.44.53-.27.53-.09.53.09.62.27.53.44.27.35.27.44.18.18.09.18-.35.18-.44.35v-.09l-.09-.09Z" />
          </g>
          <g id="g3341">
            <path id="path3343" class="cls-3"
              d="m81.04,21.39l.09.09.09.09.18.09h.09l.09-.09.27-.09.27-.27.35-.35.35-.35.35-.35.44-.35.27-.27.18-.18.09-.09v-.18l-.09-.18-.09-.09-.09-.09h.09l.09-.09.27.35.35.35.27.27.18.27-.09.09-.09-.09-.09-.09-.09-.09-.09-.09-.09.09-.18.09-.35.27-.53.44-.35.35-.35.35-.35.35-.35.27-.18.18-.09.09v.18l.09.09.09.09.09.09-.09.09h-.09l-.18-.27-.27-.27-.53-.53.09-.09v-.09Z" />
          </g>
          <g id="g3345">
            <path id="path3347" class="cls-3"
              d="m84.31,22.36l-.27.27-.27.18-.18.18-.18.09-.27.27-.18.09.27.35.27.35.18.18.09.18.18.09.09.09.27-.09.35-.18.09.09-.44.27-.27.18-.09.09-.18-.18-.27-.27-.27-.27-.35-.44-.18-.35-.27-.27-.27-.35h.09v-.09h.09v.09l.09.09.09.09h.18l.09-.09.27-.18.35-.35.62-.53.62-.53.35-.27.18-.18.09-.18.09-.09h.09v-.09l-.09-.09-.09-.09v-.09l-.09-.09.09-.09v-.09l.27.27.09.09.09.09.09.18.09.18.35.44.35.35.18.27.18.18.18.18.09.27-.35.18-.44.27v-.09l-.09-.09.27-.18.18-.18-.18-.35-.27-.35-.27-.27-.27-.35-.18.18-.27.18-.18.18-.18.09-.18.27-.27.18.18.18.09.18.35.44.18.09h.09l.18-.09.09-.09h.09l.09.09-.35.27-.27.18-.18.18-.27.27-.09-.09-.09-.09h.09l.09-.09.18-.09v-.18l-.09-.27-.27-.35-.18-.18-.18-.18Z" />
          </g>
          <g id="g3349">
            <path id="path3351" class="cls-3"
              d="m87.41,23.86l-.8.62-.8.62-.53.35-.27.18-.18.18v.18l.09.09v.09l.09.09-.09.09h-.09l-.09-.18-.18-.27-.18-.18-.27-.35.09-.09.09.09h.09l.09.09.09.09h.09l.09-.09.35-.18.35-.35.62-.35.62-.44.35-.27.35-.27.09-.09v-.09l.09-.09v-.18l-.09-.09-.09-.09v-.09h.09v-.09l.18.27.18.18.18.18.09.18-.09.44-.18.44-.27.8-.27.71-.27.71-.27.71-.18.44,1.59-1.06.44-.27.35-.18.27-.18.09-.09v-.18l-.09-.18v-.09l-.09-.09h.09l.09-.09.18.35.18.27.18.27.18.27-.09.09h-.09v-.09l-.09-.09-.18-.18h-.18l-.09.09-.18.18-.35.18-.44.27-.62.35-.53.35-.53.35-.62.35-.09-.27v-.27l.18-.44.18-.53.62-1.5.44-1.59Z" />
          </g>
          <g id="g3353">
            <path id="path3355" class="cls-3"
              d="m90.94,30.4l.18-.09.27-.18v-.62l-.09-.27-.09-.27-.44-.53-.62-.27h-.62l-.71.27-.44.27-.35.44-.18.44-.18.44.09.44.09.35.18.35.27.27.18.18.27.09v.09h-.18l-.18.09-.27-.18-.18-.27-.18-.27-.18-.27-.27-.53v-.62l.09-.53.18-.44.35-.44.53-.35.53-.27.53-.09.53.09.53.27.44.35.44.62.18.35.09.53.09.27v.18l-.35.09-.53.18v-.18Z" />
          </g>
          <g id="g3357">
            <path id="path3359" class="cls-3"
              d="m90.59,32.43l-.35.18-.35.09-.18.09-.18.09-.35.18-.18.09.18.35.09.35.18.27.09.18.09.18.09.09.27-.09.35-.09.09.09v.09l-.53.18-.27.09-.09.09h-.09l-.27-.53v-.18l-.09-.18-.27-.62-.18-.35-.09-.27-.27-.44h.09l.09-.09.09.09.09.18.09.09h.09l.09-.09.35-.09.44-.18.8-.35.71-.35.35-.09.27-.18.18-.09.09-.09v-.18l-.09-.18v-.18l.09-.09.09.18.09.09.09.18v.09l.09.18.09.18.27.53.18.44.09.27.09.27.09.18.09.27-.35.09-.53.18v-.09l-.09-.09.35-.09.18-.18-.09-.35-.09-.44-.18-.35-.18-.35-.27.09-.27.09-.18.18-.27.09-.27.09-.27.09.09.27.09.18.09.27.09.27.18.18h.09l.18-.09h.09l.09-.09.09.09v.09l-.35.18-.35.09-.27.18-.27.09-.09-.09v-.09h.18l.18-.09.09-.18-.09-.18-.09-.27-.09-.27-.09-.18-.09-.18Z" />
          </g>
          <g id="g3361">
            <path id="path3363" class="cls-3"
              d="m90.59,37.38l.09.18.09.27.18.35.09.35.09.18.09.18h.71v.09l.09.09-.62.09-.44.09-.09-.27-.18-.35-.09-.62-.18-.53-.18-.35-.18-.44h.18l.18.09.09.09h.09l.27-.09.62-.18.8-.27.71-.27.44-.09.27-.18.18-.09h.09l.09-.09-.09-.18v-.09l-.09-.18.09-.09h.09l.18.53.09.35.18.35.09.35-.09.09h-.09v-.18l-.09-.18-.09-.09-.09-.09-.18.09h-.27l-.27.09-.88.35-.97.27-.8.27h-.09l-.09.09Z" />
          </g>
          <g id="g3365">
            <path id="path3367" class="cls-3"
              d="m92.89,40.3l.27,1.33.88-.53.8-.53-.97-.09-.97-.18Zm.09,1.5l-.18-.8-.18-.71-.27-.09h-.97v.18l.09.18v.09h-.18l-.09-.18-.09-.35-.09-.27-.09-.35h.18l.09.09v.09l.09.09.09.09h.09l.53.09h.44l1.06.18.97.18.71.09.44.09v.18l-1.59,1.06-1.59.97-.27.18-.09.09h-.09v.35h-.18l-.09-.27v-.35l-.09-.35-.09-.35h.09l.09-.09v.18l.09.09v.18h.27l.09-.09.44-.27.35-.18Z" />
          </g>
          <g id="g3369">
            <path id="path3371" class="cls-3"
              d="m92.27,44.54v.35l.18.35.18.35.44.09.35.09.35-.09.18-.09.18-.18.09-.18.09-.35-.09-.35v-.35l-.53.09-.53.09-.18.09h-.62l-.09.09Zm2.21-.35v.27l.09.44.18.27.27.18h.35l.35-.09.18-.18.09-.27v-.53l-.09-.27-.44.09h-.62l-.18.09h-.18Zm0,.88l-.09.53-.09.35-.35.18-.35.18-.53-.09-.53-.27-.35-.44-.18-.53v-.8l-.09-.18v-.18h.09l.09.09.09.09h.18l.35-.09.44-.09,1.86-.27.53-.09.27-.09.09-.09v-.27l-.09-.09.09-.09h.09l.09.18v.35l.09.18v.35l.09.44v.27l.09.18v.44l-.18.27-.18.27-.35.09h-.35l-.27-.09-.27-.27-.27-.44Z" />
          </g>
          <g id="g3373">
            <path id="path3375" class="cls-3"
              d="m35,89.62l-.18.35-.18.35h-.18l.09-.09v-.18l.09-.18v-.09l-.09-.09-.18-.18-.18-.18-.18-.09-.35-.09h-.35l-.27.18-.18.27-.09.27v.18l.09.18.09.18.18.18.44.18.35.27.27.18.09.18.09.18v.27l-.09.27-.35.44-.44.35-.62.09-.71-.18-.18-.09-.27-.18-.18-.18-.27-.27.18-.35.27-.35h.18l-.09.09v.09l-.09.18v.35l.27.27.18.18.27.09.44.09h.35l.35-.18.18-.35.09-.18v-.27l-.09-.09-.09-.18-.18-.18-.35-.18-.44-.27-.27-.18-.09-.27-.09-.18v-.27l.09-.35.35-.44.35-.18.53-.09.53.09.27.18.18.09.27.18.18.18Z" />
          </g>
          <g id="g3377">
            <path id="path3379" class="cls-3"
              d="m35.7,92.36l.71.27.62.18v-.88l-.09-.97-.62.71-.62.71Zm1.33.71l-.71-.27-.8-.27-.09.18-.18.18-.27.35-.09.18-.09.09h.09l.09.09.18.09h.09v.09l-.09.09-.27-.09-.27-.09-.35-.09-.35-.18.09-.09v-.09h.09v.09h.35l.09-.09.35-.35.35-.35.62-.71.62-.8.44-.44.27-.35h.18l.09,1.86.18,1.77v.35l.09.09v.09l.09.09.09.09h.09v.18l-.35-.09-.35-.09-.35-.09-.44-.18.09-.09v-.09l.18.09h.35v-.71l-.09-.44Z" />
          </g>
          <g id="g3381">
            <path id="path3383" class="cls-3"
              d="m40.21,91.38l-.09.44-.18.44-.18.8-.18.8-.09.44-.09.27v.27l.09.09.18.09h.09l.09.09v.18l-.44-.18-.35-.09-.35-.09-.53-.09.09-.09v-.09h.18l.09.09h.18l.09-.09v-.09l.18-.27.09-.53.27-.71.18-.8.09-.27v-.27l.09-.35v-.18l-.09-.09-.18-.09h-.18v-.09l.09-.09.35.18.35.09.35.09h.27l.27.09h.09l.53.18.35.27.09.35v.35l-.09.27-.18.27-.27.27-.27.09-.35.09h-.35l-.18-.09-.18-.09v-.18l.18.09h.18l.35.09.27-.18.18-.27.18-.35v-.35l-.09-.27-.27-.27-.35-.09-.27-.09h-.27Z" />
          </g>
          <g id="g3385">
            <path id="path3387" class="cls-3"
              d="m43.04,93.86l-.09.35v.35l-.09.27v.18l-.09.27v.27l.44.09.35.09h.88l.09-.27.09-.35h.18l-.09.53-.09.35v.09h-.27l-.35-.09h-.44l-.62-.09-.44-.18h-.35l-.44-.09v-.18h.35l.09-.09.09-.09.09-.27v-.27l.09-.27.27-1.59.09-.35v-.62h-.09l-.18-.09h-.09l-.09-.09v-.09l.09-.09.18.09h.27l.09.09h.27l.53.09.44.09h.27l.18.09h.27l.27.09-.09.35-.18.44h-.18l.09-.27v-.27l-.35-.09-.35-.09-.35-.09h-.44v.27l-.09.27v.18l-.09.27v.27l-.09.27.27.09h.27l.44.09h.27l.09-.09v-.35h.18v.35l-.09.35v.27l-.09.35h-.18v-.18l.09-.27-.09-.09-.18-.09h-.27l-.27-.09h-.18l-.27-.09Z" />
          </g>
          <g id="g3389">
            <path id="path3391" class="cls-3"
              d="m47.28,94.3l.27.44.27.53.27.35.27.35.09.18.09.09h.18v.18h-.44l-.18-.09-.18.09-.44-.71-.44-.8-.18-.35-.27-.44v-.09l.18.09h.09l.35-.09.35-.09.18-.35.09-.35-.09-.35-.09-.27-.27-.09-.35-.09h-.53v.53l-.09.44-.09.71-.09.71v1.15l.09.09h.18l.18.09h.09l-.09.09v.09l-.35-.09h-.35l-.35-.09h-.53v-.18h.44l.09-.09v-.09l.09-.27v-.35l.09-.44.09-.62v-.71l.09-.44v-.53l-.09-.09-.18-.09h-.18v-.18l.44.09h1.15l.18.09h.35l.27.09.18.18.18.18.09.18v.27l-.09.35-.18.35-.35.27-.44.18Z" />
          </g>
          <g id="g3393">
            <path id="path3395" class="cls-3"
              d="m50.02,94.48v1.68h1.5l.18-.09.09-.27v-.35h.18v.97h-3v-.18h.35l.09-.09v-.18l.09-.27v-3.09h-.09l-.09-.09h-.35v-.18h2.83v.44l-.09.44h-.18v-.53l-.35-.09h-1.15v1.59h1.15l.09-.18v-.35h.18v1.33h-.18v-.35l-.09-.09-.18-.09h-.97Z" />
          </g>
          <g id="g3397">
            <path id="path3399" class="cls-3"
              d="m54.71,94.65l.71-.09.62-.09-.44-.8-.44-.88-.18.97-.27.88Zm1.41,0l-.71.09-.8.09-.09.27-.09.27-.09.35v.27l.09.09h.35v.09l.09.09h-.62l-.35.09h-.35v-.18h.18l.09-.09.09-.09.09-.09.18-.44.09-.44.27-.88.27-.97.18-.62.18-.44.09-.09h.09l.88,1.59.88,1.59.09.27.09.18h.09l.09.09h.27v.18h-.35l-.35.09h-.35l-.44.09v-.18h.18l.09-.09h.18v-.18l-.09-.18-.18-.35-.27-.44Z" />
          </g>
          <g id="g3401">
            <path id="path3403" class="cls-3"
              d="m57.27,91.91v-.18h.44l.35-.09.27-.09.44-.09v.18l-.09.09h-.09l-.18.09-.09.09v.53l.09.35.18.62.09.53.09.44.09.35.18.18.27.18.35.09.35-.09.44-.18.35-.18.09-.18.09-.27v-.35l-.09-.62-.27-1.06-.18-.53-.09-.18v-.09l-.18-.09h-.18l-.09.09h-.09v-.18l.44-.09.18-.09.27-.09.35-.09v.18l-.09.09h-.09l-.09.09-.09.09v.53l.09.35.18.44.09.53.18.62v.62l-.09.27-.18.27-.27.18-.35.18-.35.09-.35.09h-.35l-.35-.09-.18-.09-.18-.18-.18-.18-.09-.27-.09-.44-.09-.27v-.27l-.09-.44-.09-.44-.09-.35v-.27l-.09-.18v-.09l-.18-.09h-.35Z" />
          </g>
          <g id="g3405">
            <path id="path3407" class="cls-3"
              d="m63.28,94.3l.35-.09.27-.09.71-.27.35-.44.18-.71-.18-.88-.35-.62-.44-.44-.62-.18-.62.09-.27.18-.35.09.09.27.09.35.27.88.27.88.18.53.09.44Zm-.53.18l-.09-.27-.09-.35-.27-.88-.09-.35-.09-.44-.09-.44-.18-.44-.09-.09-.09-.09-.09-.09h-.09l-.09.09h-.09l-.09-.09v-.09l.35-.09.18-.09.35-.09.35-.09.27-.09.27-.09.35-.09.27-.09h.35l.35.09.35.27.27.18.27.35.18.44.18.44v.88l-.18.35-.53.71-.35.27-.44.18-.18.09h-.18l-.44.09-.18.09-.27.09-.27.09-.09-.09v-.09l.18-.09.09-.09Z" />
          </g>
          <g id="g3409">
            <path id="path3411" class="cls-3"
              d="m66.81,91.29l.18.35.09.27.09.27.09.18.18.27.09.18.44-.09.35-.18.27-.09.18-.18.18-.09.09-.09-.09-.27-.09-.35h.09l.09-.09.18.53.09.27.09.09v.09l-.53.27-.18.09-.27.09-.62.18-.35.18-.35.18-.44.18-.09-.09v-.09h.09l.18-.09.09-.09v-.27l-.09-.27-.18-.44-.27-.8-.35-.71-.09-.35-.09-.27-.09-.09-.09-.18h-.35l-.18.09v-.18l.18-.09h.09l.09-.09h.09l.18-.09.18-.09.44-.18.44-.18.27-.09.18-.09.27-.09.18-.09.18.35.09.44-.09.09h-.09l-.09-.27-.09-.18-.35.09-.44.09-.27.18-.35.18.09.18.09.27.09.27.09.18.09.27.09.27.27-.09.18-.09.27-.09.18-.09.18-.09.09-.18-.09-.18v-.09l-.09-.09h.09l.09-.09.18.35.09.35.27.53-.09.09h-.09v-.09l-.09-.09-.09-.18-.09-.09-.27.09-.44.18-.18.09-.27.09Z" />
          </g>
          <g id="g3413">
            <path id="path3415" class="cls-3"
              d="m50.38,11.49c-21.6,0-38.89,17.28-38.89,38.89s17.28,38.89,38.89,38.89,38.89-17.28,38.89-38.89S71.98,11.49,50.38,11.49m0-.71c22,0,39.59,17.6,39.59,39.59s-17.6,39.59-39.59,39.59S10.78,72.37,10.78,50.38,28.38,10.78,50.38,10.78" />
          </g>
          <g id="g3417">
            <path id="path3419" class="cls-3"
              d="m50.38,2.12C23.57,2.12,2.12,23.57,2.12,50.38s21.45,48.25,48.25,48.25,48.25-21.45,48.25-48.25S77.18,2.12,50.38,2.12m0-.71c27.2,0,48.96,21.76,48.96,48.96s-21.76,48.96-48.96,48.96S1.41,77.58,1.41,50.38,23.17,1.41,50.38,1.41" />
          </g>
          <g id="g3421">
            <path id="path3423" class="cls-3"
              d="m50.38.88C22.88.88.88,22.88.88,50.38s22,49.49,49.49,49.49,49.49-22,49.49-49.49S77.87.88,50.38.88m0-.35c27.69,0,49.85,22.15,49.85,49.85s-22.15,49.85-49.85,49.85S.53,78.07.53,50.38,22.68.53,50.38.53" />
          </g>
        </g>
      </g>
    </g>
  </g>
  <text class="cls-1" transform="translate(115 56.42)">
    <tspan x="0" y="0">Alumni des Heidelberger Life-Science Lab e.V.</tspan>
  </text>
</svg>