<?xml version="1.0" encoding="utf-8"?>
<!-- Generator: Adobe Illustrator 22.0.1, SVG Export Plug-In . SVG Version: 6.00 Build 0)  -->
<!DOCTYPE svg PUBLIC "-//W3C//DTD SVG 1.1//EN" "http://www.w3.org/Graphics/SVG/1.1/DTD/svg11.dtd">
<svg version="1.1" id="Ebene_1" xmlns="http://www.w3.org/2000/svg" xmlns:xlink="http://www.w3.org/1999/xlink" x="0px" y="0px"
	 viewBox="0 0 214 30" style="enable-background:new 0 0 214 30;" xml:space="preserve">
<style type="text/css">
	.st0{fill:#005799;}
	.st1{fill:#E3E3E3;}
	.st2{fill:#CFD0D0;}
	.st3{fill:#BCBDBD;}
	.st4{fill:#B0CB1F;}
	.st5{fill:#FECC00;}
	.st6{fill:#E31E24;}
	.st7{fill:#9D9E9E;}
</style>
<title>wss-logo</title>
<g id="Ebene_1-2">
	<path class="st0" d="M83.2,15.9h2.3l0.9-5.1l0,0l1,5.1h2.3l1.5-6.7h-1.7l-0.9,5.1l0,0l-0.9-5.1h-2.3l-0.9,5.1l0,0l-0.9-5.1h-1.8
		L83.2,15.9z M91.9,15.9h4.8v-1.3h-3v-1.5h2.8v-1.3h-2.8v-1.4h2.9V9.1h-4.7L91.9,15.9z M97.9,15.9h1.8v-2.6h0.4
		c0.7,0,0.9,0.3,1.3,1.4l0.4,1.2h1.9l-0.6-1.8c-0.3-0.8-0.4-1.3-1-1.5l0,0c0.8-0.1,1.4-0.9,1.3-1.7c0-1.1-1-1.7-2.2-1.7H98v6.7H97.9
		z M99.7,10.5h0.5c0.7,0,1.3,0.1,1.3,0.7c0,0.8-0.7,0.8-1.3,0.8h-0.5V10.5z M104.6,15.9h1.6l-0.1-4.6l0,0l2.3,4.6h2.2V9.2H109v4.5
		l0,0l-2.3-4.5h-2.3v6.7H104.6z M112.1,15.9h4.8v-1.3h-3v-1.5h2.8v-1.3h-2.8v-1.4h2.9V9.1h-4.7L112.1,15.9z M118.2,15.9h1.8v-2.6
		h0.4c0.7,0,0.9,0.3,1.3,1.4l0.4,1.2h1.9l-0.6-1.8c-0.3-0.8-0.4-1.3-1-1.5l0,0c0.8-0.1,1.4-0.9,1.3-1.7c0-1.1-1-1.7-2.2-1.7h-3.3
		L118.2,15.9z M119.9,10.5h0.5c0.7,0,1.3,0.1,1.3,0.7c0,0.8-0.7,0.8-1.3,0.8h-0.5V10.5z M124.5,14h2.6v-1.3h-2.6V14z M128.1,15.8
		c0.6,0.2,1.3,0.3,2,0.3c1.5,0,2.9-0.5,2.9-2.2c0-2.4-3.2-1.7-3.2-2.8c0-0.6,0.7-0.6,1.2-0.6c0.5,0,1,0.1,1.5,0.3l0.1-1.4
		c-0.5-0.2-1.1-0.2-1.7-0.2c-1.3,0-2.9,0.4-2.9,2c0,2.4,3.2,1.6,3.2,2.9c0,0.5-0.5,0.6-1.1,0.6c-0.6,0-1.2-0.1-1.8-0.4L128.1,15.8z
		 M134.4,15.9h1.8V9.2h-1.8V15.9z M137.8,15.9h4.8v-1.3h-3v-1.5h2.8v-1.3h-2.8v-1.4h2.9V9.1h-4.7V15.9z M143.8,15.9h1.7v-5.1l0,0
		l1.6,5.1h1.6l1.7-5.1l0,0v5.1h1.7V9.2h-2.7l-1.5,4.4l0,0l-1.4-4.4h-2.8L143.8,15.9L143.8,15.9z M153.5,15.9h4.8v-1.3h-3v-1.5h2.8
		v-1.3h-2.9v-1.4h2.9V9.1h-4.7L153.5,15.9L153.5,15.9z M159.6,15.9h1.6l-0.1-4.6l0,0l2.3,4.6h2.2V9.2H164v4.5l0,0l-2.3-4.5h-2.3v6.7
		L159.6,15.9z M167,15.8c0.6,0.2,1.3,0.3,2,0.3c1.5,0,2.9-0.5,2.9-2.2c0-2.4-3.2-1.7-3.2-2.8c0-0.6,0.7-0.6,1.2-0.6
		c0.5,0,1,0.1,1.5,0.3l0.1-1.4c-0.5-0.2-1.1-0.2-1.7-0.2c-1.3,0-2.9,0.4-2.9,2c0,2.4,3.2,1.6,3.2,2.9c0,0.5-0.5,0.6-1.1,0.6
		c-0.6,0-1.2-0.1-1.8-0.4L167,15.8z M172.9,14h2.6v-1.3h-2.6V14z M176.6,15.8c0.6,0.2,1.3,0.3,2,0.3c1.5,0,2.9-0.5,2.9-2.2
		c0-2.4-3.2-1.7-3.2-2.8c0-0.6,0.7-0.6,1.2-0.6c0.5,0,1,0.1,1.5,0.3l0.1-1.4c-0.5-0.2-1.1-0.2-1.7-0.2c-1.3,0-2.9,0.4-2.9,2
		c0,2.4,3.2,1.6,3.2,2.9c0,0.5-0.5,0.6-1.1,0.6c-0.6,0-1.2-0.1-1.8-0.4L176.6,15.8z M188.2,14.4c-0.5,0.2-1.1,0.3-1.7,0.3
		c-1.1,0.1-2.1-0.7-2.2-1.8c0-0.1,0-0.2,0-0.3c-0.1-1.1,0.8-2.1,1.9-2.2c0.1,0,0.1,0,0.2,0c0.6,0,1.2,0.1,1.7,0.5l0.1-1.4
		c-0.6-0.2-1.3-0.3-2-0.3c-2.2,0-3.8,1.2-3.8,3.5c0,2.5,2.1,3.4,3.8,3.4c0.7,0,1.4-0.1,2-0.3L188.2,14.4z M189.3,15.9h1.8V13h2.1
		v2.9h1.8V9.2h-1.8v2.6h-2.1V9.2h-1.8L189.3,15.9L189.3,15.9z M202.2,9.3h-1.8v3.8c0,0.9-0.2,1.6-1.1,1.6s-1.1-0.7-1.1-1.6V9.3h-1.8
		v4.1c0,1.8,1.2,2.6,2.9,2.6s2.9-0.8,2.9-2.6L202.2,9.3L202.2,9.3z M203.5,15.9h4.5v-1.3h-2.8V9.2h-1.8L203.5,15.9L203.5,15.9z
		 M209,15.9h4.8v-1.3h-3v-1.5h2.8v-1.3h-2.8v-1.4h2.9V9.1H209L209,15.9z"/>
	<path class="st0" d="M82.1,26c0.5,0.2,1,0.3,1.5,0.3c1.1,0.1,2.1-0.7,2.2-1.8c0,0,0-0.1,0-0.1c0-2-3.1-2-3.1-3.3
		c0-0.9,0.8-1.1,1.4-1.1c0.4,0,0.8,0.1,1.2,0.2l0.1-0.6c-0.4-0.2-0.9-0.2-1.3-0.2c-1.2,0-2.1,0.7-2.1,1.7c0,1.8,3.1,1.9,3.1,3.2
		c0,0.8-0.6,1.4-1.4,1.4c0,0-0.1,0-0.1,0c-0.5,0-1.1-0.1-1.5-0.4L82.1,26z M88.5,26.1h0.7V20h2v-0.6h-4.6V20h2L88.5,26.1L88.5,26.1z
		 M96.9,19.4h-0.7v4.3c0,1-0.8,1.8-1.8,1.8c-1,0-1.8-0.8-1.8-1.8c0,0,0,0,0,0v-4.3h-0.7v4.3c-0.1,1.2,0.7,2.3,1.9,2.4
		c0.2,0,0.3,0,0.5,0c1.2,0.1,2.3-0.8,2.4-2c0-0.1,0-0.2,0-0.4v-4.3L96.9,19.4z M99.8,26.1h0.7V20h2v-0.6h-4.6V20h2L99.8,26.1
		L99.8,26.1z M104.7,26.1h0.7V20h2v-0.6h-4.6V20h2L104.7,26.1L104.7,26.1z M112.9,25.4c-0.4,0.2-0.9,0.2-1.4,0.2
		c-1.4,0.1-2.6-1-2.7-2.4c0-0.2,0-0.3,0-0.5c-0.1-1.4,0.9-2.7,2.3-2.9c0.1,0,0.2,0,0.4,0c0.6,0,1.2,0.1,1.7,0.4l0.1-0.6
		c-0.6-0.2-1.2-0.3-1.8-0.3c-1.8-0.1-3.3,1.3-3.4,3c0,0.2,0,0.3,0,0.5c-0.2,1.8,1.2,3.3,2.9,3.5c0.2,0,0.3,0,0.5,0
		c0.7,0,1.4-0.1,2.1-0.4v-3.3h-2.2v0.6h1.6v2.2H112.9z M114.6,26.1h0.6l0.7-1.8h3.4l0.7,1.8h0.7l-2.6-6.7h-0.7L114.6,26.1z
		 M119.1,23.8h-2.9l1.5-3.7L119.1,23.8z M122.4,20h0.7c0.9,0,1.7,0.1,1.7,1.2c0,0.9-0.9,1.2-1.7,1.2h-0.7V20z M121.7,26.1h0.7V23
		h0.5c0.6,0,0.9,0,1.3,0.9l1,2.3h0.7l-1.1-2.6c-0.2-0.5-0.3-0.7-0.9-0.8l0,0c0.8-0.1,1.4-0.7,1.5-1.5c0-1.2-0.8-1.7-2-1.7h-1.7V26.1
		z M128.4,26.1h0.7V20h2v-0.6h-4.6V20h2L128.4,26.1L128.4,26.1z"/>
	<path class="st1" d="M41.8,4.2h27.7L57.4,8.3H41.1V4.7L41.8,4.2z"/>
	<path class="st2" d="M35.1,9.3h34.4l-12.1,4.1h-23V9.8L35.1,9.3z"/>
	<path class="st3" d="M28.4,14.3h41l-12.2,4.1H27.7v-3.6L28.4,14.3z"/>
	<polygon class="st4" points="69.4,21.6 51.7,21.6 51.7,26.1 58.3,26.1 	"/>
	<polygon class="st5" points="50.4,21.6 32.6,21.6 32.6,26.1 39.2,26.1 	"/>
	<polygon class="st6" points="31.3,21.6 13.6,21.6 13.6,26.1 20.1,26.1 	"/>
	<polygon class="st7" points="74.5,19.6 12.5,19.6 12.5,20.3 72.5,20.3 	"/>
</g>
</svg>
